<svg xmlns="http://www.w3.org/2000/svg" width="52.374" height="48.003" viewBox="0 0 52.374 48.003">
  <g id="accident_1_" data-name="accident (1)" transform="translate(0 -20.03)">
    <g id="Group_27646" data-name="Group 27646" transform="translate(0 66.288)">
      <g id="Group_27645" data-name="Group 27645">
        <path id="Path_25324" data-name="Path 25324" d="M51.5,443.97H.873a.873.873,0,0,0,0,1.746H51.5a.873.873,0,0,0,0-1.746Z" transform="translate(0 -443.97)" fill="#777"/>
      </g>
    </g>
    <g id="Group_27650" data-name="Group 27650" transform="translate(5.233 23.163)">
      <g id="Group_27649" data-name="Group 27649">
        <path id="Path_25326" data-name="Path 25326" d="M86.27,68.364l-8.879-8.877a.873.873,0,0,0-1.234,0l-6.37,6.364-5.833-5.833a7.867,7.867,0,0,0,6.706-7.772V52.1a2.619,2.619,0,1,0-5.237,0,2.772,2.772,0,0,1-2.769,2.768,13.159,13.159,0,0,0-4.494.8,5.237,5.237,0,1,0-5.3,3.547l-.267.274a9.515,9.515,0,0,0,0,13.455l.331.331a2.723,2.723,0,0,0,3.847-3.855l-.331-.331a4.073,4.073,0,0,1-.551-5.063l12.14,12.135H61.058a.873.873,0,1,0,0,1.746H69.77l.89.89v7.839a3.486,3.486,0,0,0,.472,1.746h-5.71a.873.873,0,1,0,0,1.746h8.729a3.492,3.492,0,0,0,3.492-3.492V75.81a.873.873,0,0,0-.256-.617L73.64,71.445l3.13-3.125,4.774,4.77a3.342,3.342,0,0,0,4.726-4.726ZM49.71,53.992A3.492,3.492,0,1,1,53.2,57.483,3.492,3.492,0,0,1,49.71,53.992ZM85.022,71.856a1.586,1.586,0,0,1-2.243,0L77.391,66.47a.873.873,0,0,0-1.234,0L71.8,70.834a.873.873,0,0,0,0,1.234l4.1,4.108V86.634a1.746,1.746,0,1,1-3.492,0V78.429a.873.873,0,0,0-.256-.617L56.438,62.1a.873.873,0,0,0-1.234,0,5.816,5.816,0,0,0,0,8.218l.331.331a.979.979,0,0,1-1.384,1.384l-.331-.331a7.769,7.769,0,0,1,0-10.986l.767-.766a11.335,11.335,0,0,1,8.067-3.342A4.519,4.519,0,0,0,67.169,52.1a.873.873,0,0,1,1.746,0v.149a6.117,6.117,0,0,1-6.11,6.11.873.873,0,0,0-.873.873V60.1a.873.873,0,0,0,.256.617L69.17,67.7a.873.873,0,0,0,1.234,0l6.366-6.365L85.033,69.6A1.6,1.6,0,0,1,85.022,71.856Z" transform="translate(-47.96 -48.747)" fill="#777"/>
      </g>
    </g>
    <g id="Group_27656" data-name="Group 27656" transform="translate(38.408 20.03)">
      <g id="Group_27655" data-name="Group 27655">
        <path id="Path_25329" data-name="Path 25329" d="M365.094,21.251a.87.87,0,0,0-.175.018h.006a7.133,7.133,0,0,1-5.1-.889l-.383-.231a.791.791,0,0,0-.074-.032c-.025-.012-.051-.023-.077-.033a.867.867,0,0,0-.6,0c-.026.01-.051.021-.077.033a.806.806,0,0,0-.074.032l-.383.231a7.129,7.129,0,0,1-5.1.889.873.873,0,0,0-1.048.855v8.79a6.867,6.867,0,0,0,.969,3.517,6.776,6.776,0,0,0,3.156,2.769l2.512,1.082a.868.868,0,0,0,.686,0l2.513-1.082a6.776,6.776,0,0,0,3.156-2.769,6.867,6.867,0,0,0,.973-3.517v-8.79A.873.873,0,0,0,365.094,21.251Zm-6.98,14.9-1.294-.558a5.041,5.041,0,0,1-2.348-2.059,5.121,5.121,0,0,1-.722-2.619V23.128a8.85,8.85,0,0,0,4.365-.766Zm5.389-2.617a5.041,5.041,0,0,1-2.348,2.06l-1.3.558V22.362a8.851,8.851,0,0,0,4.365.766l0,7.791A5.122,5.122,0,0,1,363.5,33.537Z" transform="translate(-352 -20.03)" fill="#777"/>
      </g>
    </g>
  </g>
</svg>
