<svg xmlns="http://www.w3.org/2000/svg" width="50" height="50" viewBox="0 0 50 50">
  <g id="Group_27662" data-name="Group 27662" transform="translate(-856 -1173)">
    <rect id="Rectangle_8751" data-name="Rectangle 8751" width="50" height="50" rx="25" transform="translate(856 1173)" fill="#fff"/>
    <path id="Path_25340" data-name="Path 25340" d="M36,39a1.512,1.512,0,0,0-.366-.928l-7.2-7.65a1.546,1.546,0,0,0-1.969-.112,1.406,1.406,0,0,0,.014,1.969L32.21,39l-5.734,6.721a1.488,1.488,0,0,0-.014,1.969,1.526,1.526,0,0,0,1.969-.112l7.2-7.65A1.3,1.3,0,0,0,36,39Z" transform="translate(849.934 1159)" fill="#222"/>
  </g>
</svg>
