<svg xmlns="http://www.w3.org/2000/svg" width="74.565" height="65" viewBox="0 0 74.565 65">
  <g id="Group_20741" data-name="Group 20741" opacity="0.3">
    <rect id="Rectangle_2254" data-name="Rectangle 2254" width="2.669" height="3.721" transform="translate(39.412 53.555)" fill="#1ec00b"/>
    <path id="Path_19904" data-name="Path 19904" d="M48.935,76.59H47.6v2.668h4v-4H48.935Z" transform="translate(-9.522 -14.258)" fill="#1ec00b"/>
    <rect id="Rectangle_2255" data-name="Rectangle 2255" width="4.868" height="2.669" transform="translate(28.342 62.331)" fill="#1ec00b"/>
    <rect id="Rectangle_2256" data-name="Rectangle 2256" width="4.868" height="2.669" transform="translate(8.871 62.331)" fill="#1ec00b"/>
    <rect id="Rectangle_2257" data-name="Rectangle 2257" width="4.868" height="2.669" transform="translate(18.607 62.331)" fill="#1ec00b"/>
    <path id="Path_19905" data-name="Path 19905" d="M12.268,75.255H9.6v4h4V76.59H12.268Z" transform="translate(-9.6 -14.258)" fill="#1ec00b"/>
    <rect id="Rectangle_2258" data-name="Rectangle 2258" width="2.669" height="4.868" transform="translate(0 31.79)" fill="#1ec00b"/>
    <rect id="Rectangle_2259" data-name="Rectangle 2259" width="2.669" height="4.868" transform="translate(0 41.525)" fill="#1ec00b"/>
    <rect id="Rectangle_2260" data-name="Rectangle 2260" width="2.669" height="4.868" transform="translate(0 51.261)" fill="#1ec00b"/>
    <path id="Path_19906" data-name="Path 19906" d="M9.6,41.258h2.668V39.923H13.6V37.255h-4Z" transform="translate(-9.6 -14.336)" fill="#1ec00b"/>
    <rect id="Rectangle_2261" data-name="Rectangle 2261" width="4.506" height="2.669" transform="translate(8.509 22.919)" fill="#1ec00b"/>
    <path id="Path_19907" data-name="Path 19907" d="M84.092,54.329a1.351,1.351,0,0,0-.914-.967L68.986,49.118V26.139a1.312,1.312,0,0,0-.394-.941L58.177,14.777a1.312,1.312,0,0,0-.941-.394H29.754a1.338,1.338,0,0,0-1.334,1.334V37.3H27.085v2.669H28.42V62.883H48.977v1.334h2.669V62.883h9.508l2.909,8.934a1.353,1.353,0,0,0,.947.881,1.315,1.315,0,0,0,.32.04,1.353,1.353,0,0,0,.927-.374l5.6-5.384,5.031,5.031a1.337,1.337,0,0,0,1.888,0l4.27-4.27a1.338,1.338,0,0,0,.394-.947,1.312,1.312,0,0,0-.394-.941l-4.9-4.9L83.718,55.6a1.332,1.332,0,0,0,.374-1.274ZM58.384,18.753l6.225,6.232H58.384Zm7.933,29.564-8.54-2.555a1.335,1.335,0,0,0-1.648,1.695l4.157,12.757h-29.2V17.052H55.715v9.268a1.338,1.338,0,0,0,1.334,1.334h9.268V48.317Z" transform="translate(-9.564 -14.383)" fill="#1ec00b"/>
    <path id="Path_19908" data-name="Path 19908" d="M61.189,31.957a1,1,0,0,1-1,1H36.669a1,1,0,1,1,0-2H60.188a1,1,0,0,1,1,1Z" transform="translate(-9.547 -14.349)" fill="#1ec00b"/>
    <path id="Path_19909" data-name="Path 19909" d="M61.189,36.791a1,1,0,0,1-1,1H36.669a1,1,0,0,1,0-2H60.188a1,1,0,0,1,1,1Z" transform="translate(-9.547 -14.339)" fill="#1ec00b"/>
    <path id="Path_19910" data-name="Path 19910" d="M61.189,41.632a1,1,0,0,1-1,1H36.669a1,1,0,1,1,0-2H60.188a1,1,0,0,1,1,1Z" transform="translate(-9.547 -14.329)" fill="#1ec00b"/>
  </g>
</svg>
