<svg xmlns="http://www.w3.org/2000/svg" width="34.916" height="33.173" viewBox="0 0 34.916 33.173"><defs><style>.a{fill:#777;stroke:#777;stroke-width:0.05px;}</style></defs><g transform="translate(0.025 0.025)"><g transform="translate(0)"><g transform="translate(0 0)"><path class="a" d="M32.123,39a28.7,28.7,0,0,0-8.5-3.266l.245-.337a.452.452,0,0,0,.116-.465l-.549-2.2a12.042,12.042,0,0,0,2.176-6.984V22.291q.059-.043.116-.088a3.286,3.286,0,0,0,1.162-2.5,7.9,7.9,0,0,0-7.845-7.9H13.876a7.988,7.988,0,0,0-7.961,7.845,3.2,3.2,0,0,0,1.162,2.5l.058.042v3.56a12.431,12.431,0,0,0,2.288,7l-.545,2.178A.781.781,0,0,0,9,35.394l.245.337A28.7,28.7,0,0,0,.743,39,3.09,3.09,0,0,0-1,41.844v2.5a.549.549,0,0,0,.581.581h33.7a.549.549,0,0,0,.581-.581v-2.5A3.332,3.332,0,0,0,32.123,39Zm-9.588-5.114.232,1.046-.594.815a.519.519,0,0,0-.1.115l-3.2,4.416-1.567-3.54a8.183,8.183,0,0,0,4.486-2.129Q22.176,34.269,22.535,33.883Zm2.441-12.61-.047.039a.56.56,0,0,0-.186.078,1.924,1.924,0,0,1-.8.361,1.89,1.89,0,0,1-.657-.012,36.176,36.176,0,0,0-12.43-.219q-.674.1-1.342.219c-.072.008-.143.012-.215.014a2.2,2.2,0,0,1-1.3-.421,1.807,1.807,0,0,1-.7-.93l2.5-.465a36.581,36.581,0,0,1,13.307,0L25.6,20.4A2.273,2.273,0,0,1,24.975,21.273Zm-11.157-8.31H18.99a6.746,6.746,0,0,1,6.725,6.281l-2.425-.412a38.833,38.833,0,0,0-13.714,0l-2.425.412A6.731,6.731,0,0,1,13.818,12.963ZM8.3,22.784a3.291,3.291,0,0,0,1.511.058,35.986,35.986,0,0,1,6.581-.61,37.411,37.411,0,0,1,6.668.61,1.893,1.893,0,0,0,.413.056,3.516,3.516,0,0,0,1.1-.114v2.964a10.706,10.706,0,0,1-2.174,6.5l-.034.011-.174.174a9.743,9.743,0,0,1-.923,1.066,7.3,7.3,0,0,1-4.83,2.13h0c-.06,0-.121,0-.181,0a6.542,6.542,0,0,1-2.942-.874,9.439,9.439,0,0,1-2.63-2.319l-.174-.174-.034-.011a10.706,10.706,0,0,1-2.174-6.5Zm7.262,13.951-1.567,3.54-3.2-4.416c-.019-.019-.039-.037-.06-.055l-.637-.875.232-1.046c.079.085.158.167.239.248A8.429,8.429,0,0,0,15.559,36.735ZM32.7,43.761H.162V41.844a2,2,0,0,1,1.1-1.8c3.7-1.968,6.37-2.955,8.746-3.25l3.632,4.994a.506.506,0,0,0,.382.223.428.428,0,0,0,.083.009.057.057,0,0,1,.058.058.577.577,0,0,0,.465-.349l1.8-4.061.769,1.687,1.029,2.316a.506.506,0,0,0,.465.349h.058a.718.718,0,0,0,.465-.232l3.669-5.045A28.265,28.265,0,0,1,31.6,39.984a2.15,2.15,0,0,1,1.1,1.86v1.918Z" transform="translate(1 -11.801)"/><path class="a" d="M229.981,41.468h2.324a.549.549,0,0,0,.581-.581V37.981a.549.549,0,0,0-.581-.581h-2.324a.549.549,0,0,0-.581.581v2.906A.549.549,0,0,0,229.981,41.468Zm.581-2.905h1.162v1.743h-1.162Z" transform="translate(-213.71 -35.657)"/></g></g></g></svg>