<svg xmlns="http://www.w3.org/2000/svg" width="47.71" height="25.236" viewBox="0 0 47.71 25.236"><defs><style>.a{fill:#777;}</style></defs><path class="a" d="M47.71,72.1V81.97a.8.8,0,0,1-.8.8H45.026a.8.8,0,1,1,0-1.59h1.093V72.1a3.984,3.984,0,0,0-1.637-3.215c-3.044-2.21-8.892-5.531-16.152-5.153l.518,3.987a.8.8,0,0,1-1.577.2l-.526-4.051a23.079,23.079,0,0,0-12.737,5.983H34.1a3.958,3.958,0,0,0,3.094-1.478.8.8,0,1,1,1.237,1,5.541,5.541,0,0,1-4.331,2.07H12.184L3.337,73.9A2.393,2.393,0,0,0,1.59,76.2v4.767H2.783a.8.8,0,1,1,0,1.59H.8a.8.8,0,0,1-.8-.8V76.2a3.988,3.988,0,0,1,2.912-3.831l8.728-2.424C20.3,60.9,33.748,59.125,45.417,67.6a5.579,5.579,0,0,1,2.293,4.5ZM16.4,81.781a5.566,5.566,0,1,1-5.566-5.566A5.572,5.572,0,0,1,16.4,81.781Zm-1.59,0a3.976,3.976,0,1,0-3.976,3.976A3.98,3.98,0,0,0,14.81,81.781Zm27.632,0a5.566,5.566,0,1,1-5.566-5.566A5.572,5.572,0,0,1,42.442,81.781Zm-1.59,0a3.976,3.976,0,1,0-3.976,3.976A3.98,3.98,0,0,0,40.852,81.781Zm-11.729-.6H18.885a.8.8,0,1,0,0,1.59H29.123a.8.8,0,1,0,0-1.59Z" transform="translate(0 -62.111)"/></svg>