<svg xmlns="http://www.w3.org/2000/svg" width="40.362" height="32.783" viewBox="0 0 40.362 32.783"><defs><style>.a{fill:#777;stroke:#777;stroke-width:0.25px;}</style></defs><g transform="translate(0.125 0.232)"><path class="a" d="M400.747,121.08h.009l6.359-.1a.571.571,0,0,0-.017-1.142l-6.359.1a.571.571,0,1,0,.008,1.142Zm0,0" transform="translate(-374.002 -111.777)"/><path class="a" d="M404.638,179h-.009l-3.023.045a.571.571,0,1,0,.008,1.142h.009l3.023-.045a.571.571,0,1,0-.008-1.142Zm0,0" transform="translate(-374.812 -167.07)"/><path class="a" d="M.991,27.7a.537.537,0,0,0,.083.067,3.821,3.821,0,0,0,2.76,1.177H26.68a3.823,3.823,0,0,0,2.757-1.174.562.562,0,0,0,.191-.212,3.814,3.814,0,0,0,.886-2.449V16.4a9.914,9.914,0,0,0,2.877-.6l5.312.847a.571.571,0,0,0,.612-.8L37.838,12.52A9.951,9.951,0,1,0,20,5.978H3.834a3.84,3.84,0,0,0-3.8,3.344.576.576,0,0,0-.026.271C0,9.667,0,9.74,0,9.813V25.105a3.817,3.817,0,0,0,.885,2.448A.563.563,0,0,0,.991,27.7Zm2.843.1a2.679,2.679,0,0,1-1.615-.54l6.89-7.047a.571.571,0,1,0-.817-.8L1.469,26.391a2.679,2.679,0,0,1-.327-1.286V10.743L12.994,20.779a3.5,3.5,0,0,0,4.537,0l6.948-5.893a.483.483,0,0,0,.046-.043l.012-.013a9.853,9.853,0,0,0,4.836,1.577v8.7a2.672,2.672,0,0,1-.33,1.29l-6.864-6.984a.571.571,0,1,0-.814.8l6.928,7.049a2.679,2.679,0,0,1-1.612.537ZM23.62.33A8.808,8.808,0,0,1,36.736,12.071a.571.571,0,0,0-.081.6l1.191,2.689-4.424-.706a.573.573,0,0,0-.3.031,8.8,8.8,0,0,1-8.309-1.045.5.5,0,0,0-.041-.03,8.908,8.908,0,0,1-.968-.815A8.812,8.812,0,0,1,23.62.33ZM3.834,7.12H20.011a9.883,9.883,0,0,0,3,6.49q.284.275.584.524l-6.8,5.771a2.359,2.359,0,0,1-3.06,0L1.193,9.29A2.7,2.7,0,0,1,3.834,7.12Zm0,0" transform="translate(0 3.486)"/></g></svg>