<svg xmlns="http://www.w3.org/2000/svg" width="28.61" height="33.998" viewBox="0 0 28.61 33.998"><defs><style>.a{fill:#777;stroke:#fff;stroke-width:0.5px;}</style></defs><g transform="translate(0.25 0.278)"><path class="a" d="M63.618,6.476a.981.981,0,0,0-1.726.322l-.427,1.5A3.989,3.989,0,0,1,59.6,10.675,13.284,13.284,0,0,0,52.592.3L52.246.114A.981.981,0,0,0,50.94,1.475a6.735,6.735,0,0,1-.975,8.05,3.543,3.543,0,0,1-1.678-2.382l-.049-.258a.981.981,0,0,0-1.747-.409C43.64,10.259,41,14.444,41,19.415a14.055,14.055,0,0,0,28.11,0C69.11,14.444,66.47,10.259,63.618,6.476ZM55.055,31.508A12.107,12.107,0,0,1,42.961,19.415c0-3.169,1.176-6.223,4-10.255a5.51,5.51,0,0,0,2.842,2.456.981.981,0,0,0,1.008-.193l.186-.17A8.649,8.649,0,0,0,53.693,3.4a11.329,11.329,0,0,1,4.014,8.665.981.981,0,0,0,1.19.958,5.946,5.946,0,0,0,4.317-3.763c2.778,3.985,3.935,7.015,3.935,10.159A12.107,12.107,0,0,1,55.055,31.508Z" transform="translate(-41 0.001)"/><path class="a" d="M106.637,254.746a.817.817,0,0,0-1.151.1,1.5,1.5,0,0,1-1.227.539,2.125,2.125,0,1,1,1.187-3.887.817.817,0,1,0,.915-1.354,3.759,3.759,0,1,0-2.1,6.875,3.133,3.133,0,0,0,2.479-1.122A.817.817,0,0,0,106.637,254.746Z" transform="translate(-96.61 -233.192)"/><path class="a" d="M336.6,320.914h-.008l-.707.007c.179-.245.4-.549.659-.923a3.135,3.135,0,0,0,.51-1.062,2.157,2.157,0,0,0,.036-.3,1.638,1.638,0,0,0-3.246-.317.654.654,0,1,0,1.283.252.331.331,0,0,1,.654.034l-.008.059a1.935,1.935,0,0,1-.3.581c-.607.867-.969,1.341-1.163,1.6-.252.33-.419.549-.312.9a.678.678,0,0,0,.435.442c.087.029,1.62.046,2.175.039a.654.654,0,0,0-.008-1.307Z" transform="translate(-314.691 -296.278)"/><path class="a" d="M213.259,249.5a3.759,3.759,0,1,0,3.759,3.759A3.763,3.763,0,0,0,213.259,249.5Zm0,5.883a2.125,2.125,0,1,1,2.125-2.125A2.127,2.127,0,0,1,213.259,255.383Z" transform="translate(-198.485 -233.19)"/></g></svg>