<svg xmlns="http://www.w3.org/2000/svg" width="33.825" height="33.825" viewBox="0 0 33.825 33.825"><defs><style>.a{fill:#777;}</style></defs><g transform="translate(0 0)"><g transform="translate(0)"><path class="a" d="M92.147,402a2.147,2.147,0,1,0,2.147,2.147A2.15,2.15,0,0,0,92.147,402Zm0,2.973a.826.826,0,1,1,.826-.826A.827.827,0,0,1,92.147,404.975Z" transform="translate(-84.054 -375.444)"/><path class="a" d="M359.149,402a2.147,2.147,0,1,0,2.147,2.147A2.15,2.15,0,0,0,359.149,402Zm0,2.973a.826.826,0,1,1,.826-.826A.827.827,0,0,1,359.149,404.975Z" transform="translate(-333.417 -375.444)"/><path class="a" d="M30.257,18.8l-3.516-.35-.586-4.042a4.178,4.178,0,0,0-1.988-3.119,9.594,9.594,0,0,0,.673-3.3,8.072,8.072,0,0,0-2.384-5.669A7.781,7.781,0,0,0,16.944,0h-.059a7.784,7.784,0,0,0-5.517,2.316A8.072,8.072,0,0,0,8.985,7.985a9.594,9.594,0,0,0,.673,3.3A4.179,4.179,0,0,0,7.67,14.406l-.586,4.042-3.516.35A3.742,3.742,0,0,0,0,22.429v4.955a1.984,1.984,0,0,0,1.982,1.982H3.017a5.119,5.119,0,0,0,10.152,0h7.488a5.119,5.119,0,0,0,10.152,0h1.035a1.984,1.984,0,0,0,1.982-1.982V22.429a3.742,3.742,0,0,0-3.568-3.63Zm-5.41-4.2.551,3.8H19.23a17.9,17.9,0,0,0,2.486-2.731,19.235,19.235,0,0,0,1.926-3.15A2.932,2.932,0,0,1,24.847,14.6ZM12.3,3.252a6.475,6.475,0,0,1,4.589-1.931h.049a6.473,6.473,0,0,1,4.584,1.931,6.742,6.742,0,0,1,2,4.733c0,1.939-1.043,4.45-2.862,6.887-1.789,2.4-3.345,3.435-3.745,3.435s-1.955-1.037-3.745-3.435c-1.819-2.438-2.862-4.948-2.862-6.887a6.742,6.742,0,0,1,2-4.733ZM8.978,14.6a2.933,2.933,0,0,1,1.2-2.083,19.236,19.236,0,0,0,1.927,3.15,17.9,17.9,0,0,0,2.486,2.731H8.427ZM8.093,32.5a3.8,3.8,0,1,1,3.8-3.8A3.8,3.8,0,0,1,8.093,32.5Zm17.639,0a3.8,3.8,0,1,1,3.8-3.8h0A3.8,3.8,0,0,1,25.732,32.5Zm6.772-5.12a.661.661,0,0,1-.661.661H30.808a5.119,5.119,0,0,0-10.152,0H17.573V25a.661.661,0,0,0-1.321,0v3.044H13.169a5.119,5.119,0,0,0-10.152,0H1.982a.661.661,0,0,1-.661-.661V22.429A2.459,2.459,0,0,1,3.7,20.113l4-.4H26.128l4,.4A2.459,2.459,0,0,1,32.5,22.429v4.955Z" transform="translate(0 0)"/><path class="a" d="M199.965,68.8A3.964,3.964,0,1,0,196,64.84,3.968,3.968,0,0,0,199.965,68.8Zm0-6.606a2.643,2.643,0,1,1-2.643,2.643A2.646,2.646,0,0,1,199.965,62.2Z" transform="translate(-183.052 -56.854)"/><path class="a" d="M246.662,323.432a.661.661,0,1,0,.661.661h0A.66.66,0,0,0,246.662,323.432Z" transform="translate(-229.749 -302.065)"/></g></g></svg>