<svg xmlns="http://www.w3.org/2000/svg" width="98.229" height="93.813" viewBox="0 0 98.229 93.813">
  <g id="Group_22247" data-name="Group 22247" transform="translate(-260.013 -374)">
    <g id="team_1_" data-name="team (1)" transform="translate(258 386)">
      <path id="Path_21694" data-name="Path 21694" d="M40.086,322.128v11.713l-10.275,6.44c-.719-.479-1.406-.975-2.093-1.5a40.352,40.352,0,0,1-3.547-3.036,41.646,41.646,0,0,1-6.615-8.229c-.384-.623-.735-1.246-1.087-1.886a39.222,39.222,0,0,1-2.669-6.1l5.768-2.924,6.28-.8.863.112,5.4.687,6.647,3.372A2.42,2.42,0,0,1,40.086,322.128Z" transform="translate(-11.595 -265.338)" fill="#8d8d8d"/>
      <path id="Path_21695" data-name="Path 21695" d="M26.711,315.812l-5.4.687-6.647,3.372a2.367,2.367,0,0,0-.559.4c-.1-.272-.208-.559-.3-.847l5.768-2.924,6.28-.8Z" transform="translate(-11.595 -265.254)" fill="gray"/>
      <rect id="Rectangle_2602" data-name="Rectangle 2602" width="8.805" height="5.657" transform="translate(9.987 46.483)" fill="#ddd"/>
      <g id="Group_22233" data-name="Group 22233" transform="translate(2.013 34.227)">
        <circle id="Ellipse_794" data-name="Ellipse 794" cx="2.716" cy="2.716" r="2.716" fill="#c7c7c7"/>
        <circle id="Ellipse_795" data-name="Ellipse 795" cx="2.716" cy="2.716" r="2.716" transform="translate(19.031)" fill="#c7c7c7"/>
        <path id="Path_21696" data-name="Path 21696" d="M64.817,290.9H62.5v2.4h0v2.365h2.317a1.4,1.4,0,0,1,1.47-1.406c.16,0,.3.016.463.016a9.7,9.7,0,0,0,4.554-1.119V290.9Z" transform="translate(-54.526 -278.644)" fill="#c7c7c7"/>
      </g>
      <path id="Path_21697" data-name="Path 21697" d="M47.406,153.3H27.8v14.573a9.813,9.813,0,0,0,9.811,9.811h0a9.813,9.813,0,0,0,9.811-9.811L47.406,153.3Z" transform="translate(-23.358 -128.804)" fill="#ddd"/>
      <path id="Path_21698" data-name="Path 21698" d="M39.954,130.487c-.032,0-.064-.016-.1-.016a.974.974,0,0,0-.767.272,5.151,5.151,0,0,1-.463.415,9.292,9.292,0,0,1-5.928,2.125H24.343a4.086,4.086,0,0,0-2.445.815h-.4v.352a4.034,4.034,0,0,0-1.2,2.86v6.024a1.459,1.459,0,0,0,1.2,1.438V148.7a9.813,9.813,0,0,0,9.811,9.811h0a8.26,8.26,0,0,0,1.087-.064,9.813,9.813,0,0,1-8.725-9.747v-5.784a1.693,1.693,0,0,1,1.614-1.71h.08a3.977,3.977,0,0,1,2.541.895,4.63,4.63,0,0,0,3.4,1.2c2.557-.32,2.477-2,3.4-2.748a4.069,4.069,0,0,1,2.541-.895h.032c1.182,0,2.093-.447,2.109.735,0,.8.623,4.41,1.422,4.442a1.385,1.385,0,0,0,1.055-.431,1.463,1.463,0,0,0,.431-1.023V133.364A2.914,2.914,0,0,0,39.954,130.487Z" transform="translate(-17.056 -109.619)" fill="#c7c7c7"/>
      <path id="Path_21699" data-name="Path 21699" d="M42.471,128.748v12.5a1.4,1.4,0,0,1-.431,1.023,1.5,1.5,0,0,1-1.055.431,1.471,1.471,0,0,1-1.422-1.486v-2.493a2.128,2.128,0,0,0-2.141-2.141,3.977,3.977,0,0,0-2.541.895,5.432,5.432,0,0,1-6.807,0c-.128-.1-.256-.192-.384-.272h0a4.068,4.068,0,0,0-.8-.383,4.223,4.223,0,0,0-1.342-.224,2.141,2.141,0,0,0-2.141,2.141v2.525a1.4,1.4,0,0,1-.431,1.023,1.446,1.446,0,0,1-2.477-1.023v-8.533a4.037,4.037,0,0,1,4.043-4.043H32.9a9.292,9.292,0,0,0,5.928-2.125c.128-.112.32-.288.463-.415a.994.994,0,0,1,.767-.272.2.2,0,0,1,.1.016A2.9,2.9,0,0,1,42.471,128.748Z" transform="translate(-17.224 -105.754)" fill="#5f5f5f"/>
      <path id="Path_21700" data-name="Path 21700" d="M25.637,147.543A4.037,4.037,0,0,1,29.68,143.5H24.343a4.037,4.037,0,0,0-4.043,4.043v8.533a1.459,1.459,0,0,0,1.454,1.454,1.4,1.4,0,0,0,1.023-.431,1.463,1.463,0,0,0,.431-1.023v-2.525a2.141,2.141,0,0,1,2.141-2.141,1.735,1.735,0,0,1,.288.016v-3.883Z" transform="translate(-17.056 -120.57)" fill="#4c4c4c"/>
      <path id="Path_21701" data-name="Path 21701" d="M142.851,144.143h0a.75.75,0,0,1-.751-.751v-2.541a.75.75,0,0,1,.751-.751h0a.75.75,0,0,1,.751.751v2.541A.75.75,0,0,1,142.851,144.143Z" transform="translate(-119.394 -117.713)" fill="#7c7c7c"/>
      <path id="Path_21702" data-name="Path 21702" d="M53.839,223.007a.9.9,0,0,1-.911.783H50.563a.95.95,0,0,1-.639-.256.892.892,0,0,1-.256-.751.9.9,0,0,1,.911-.783h2.365a.95.95,0,0,1,.639.256A.91.91,0,0,1,53.839,223.007Z" transform="translate(-41.726 -186.526)" fill="#c7c7c7"/>
      <path id="Path_21703" data-name="Path 21703" d="M142.851,172.929h0a.75.75,0,0,1-.751-.751v-.527a.75.75,0,0,1,.751-.751h0a.75.75,0,0,1,.751.751v.527A.74.74,0,0,1,142.851,172.929Z" transform="translate(-119.394 -143.592)" fill="#7c7c7c"/>
      <path id="Path_21704" data-name="Path 21704" d="M53.839,227.007a.9.9,0,0,1-.911.783H50.563a.95.95,0,0,1-.639-.256.892.892,0,0,1-.256-.751.9.9,0,0,1,.911-.783h2.365a.95.95,0,0,1,.639.256A.892.892,0,0,1,53.839,227.007Z" transform="translate(-41.726 -189.887)" fill="#fff"/>
      <path id="Path_21705" data-name="Path 21705" d="M109.676,222h-2.381a.893.893,0,0,0-.895.895h0a.893.893,0,0,0,.895.895h2.381a.893.893,0,0,0,.895-.895h0A.893.893,0,0,0,109.676,222Z" transform="translate(-89.398 -186.526)" fill="#c7c7c7"/>
      <path id="Path_21706" data-name="Path 21706" d="M109.676,226h-2.381a.893.893,0,0,0-.895.895h0a.893.893,0,0,0,.895.895h2.381a.893.893,0,0,0,.895-.895h0A.893.893,0,0,0,109.676,226Z" transform="translate(-89.398 -189.887)" fill="#fff"/>
      <path id="Path_21707" data-name="Path 21707" d="M108.342,210.8h-3.931a.515.515,0,0,0-.511.511h0a.515.515,0,0,0,.511.511h3.931a.515.515,0,0,0,.511-.511h0A.515.515,0,0,0,108.342,210.8Z" transform="translate(-87.298 -177.116)" fill="#c7c7c7"/>
      <g id="Group_22234" data-name="Group 22234" transform="translate(8.852 36.097)">
        <path id="Path_21708" data-name="Path 21708" d="M57.765,226.507a1.182,1.182,0,1,1-2.365,0,1.271,1.271,0,0,1,.16-.607h2.061A1.308,1.308,0,0,1,57.765,226.507Z" transform="translate(-55.4 -225.9)" fill="#8e8e8e"/>
        <path id="Path_21709" data-name="Path 21709" d="M114.465,226.507a1.182,1.182,0,1,1-2.365,0,1.271,1.271,0,0,1,.16-.607h2.061A1.54,1.54,0,0,1,114.465,226.507Z" transform="translate(-103.04 -225.9)" fill="#8e8e8e"/>
      </g>
      <g id="Group_22235" data-name="Group 22235" transform="translate(7.558 33.668)">
        <path id="Path_21710" data-name="Path 21710" d="M47.827,210.716a.538.538,0,0,0-.527.5.5.5,0,0,0,.511.511h2.764a1.981,1.981,0,0,1,1.981,1.981v4.922h.5a1.173,1.173,0,0,0,1.166-1.166v-5.241A1.528,1.528,0,0,0,52.7,210.7H47.827Z" transform="translate(-47.3 -210.7)" fill="#c7c7c7"/>
        <path id="Path_21711" data-name="Path 21711" d="M77.8,270.522a5.293,5.293,0,0,1-3.372,0,.613.613,0,0,0-.751.288h0a.579.579,0,0,0,.415.751,6.475,6.475,0,0,0,4.043,0,.574.574,0,0,0,.415-.751h0A.613.613,0,0,0,77.8,270.522Z" transform="translate(-69.431 -260.935)" fill="#c7c7c7"/>
        <path id="Path_21712" data-name="Path 21712" d="M83.826,282.7H82.643a.539.539,0,0,0-.543.543h0a.539.539,0,0,0,.543.543h1.182a.539.539,0,0,0,.543-.543h0A.56.56,0,0,0,83.826,282.7Z" transform="translate(-76.539 -271.195)" fill="#c7c7c7"/>
      </g>
      <path id="Path_21713" data-name="Path 21713" d="M82.247,363.564a40.353,40.353,0,0,1-3.547-3.036l.991-15.228h1.374Z" transform="translate(-66.124 -290.124)" fill="#d2d2d2"/>
      <path id="Path_21714" data-name="Path 21714" d="M81.529,329.688h-.975a1.064,1.064,0,0,1-1.055-1.055v-1.278a1.054,1.054,0,0,1,1.055-1.055h.975a1.064,1.064,0,0,1,1.055,1.055v1.278A1.054,1.054,0,0,1,81.529,329.688Z" transform="translate(-66.797 -274.16)" fill="#bebebe"/>
      <g id="Group_22236" data-name="Group 22236" transform="translate(4.874 49.407)">
        <path id="Path_21715" data-name="Path 21715" d="M49.428,309.262l4.346,1.87a.82.82,0,0,1,.4,1.151l-1.406,2.541a.82.82,0,0,1-1.326.16l-3.579-3.931a.811.811,0,0,1,.128-1.214l.639-.463A.768.768,0,0,1,49.428,309.262Z" transform="translate(-44.906 -309.197)" fill="gray"/>
        <path id="Path_21716" data-name="Path 21716" d="M94,309.262l-4.346,1.87a.82.82,0,0,0-.4,1.15l1.406,2.541a.82.82,0,0,0,1.326.16l3.579-3.931a.811.811,0,0,0-.128-1.214l-.639-.463A.768.768,0,0,0,94,309.262Z" transform="translate(-79.777 -309.197)" fill="gray"/>
        <path id="Path_21717" data-name="Path 21717" d="M117.468,376.433l-2.86,1.055-2.908-1.055V374.5h5.768Z" transform="translate(-98.725 -364.065)" fill="gray"/>
        <path id="Path_21718" data-name="Path 21718" d="M36.268,374.5v1.933l-2.86,1.039-1.822-.655c-.384-.623-.735-1.246-1.087-1.885V374.5Z" transform="translate(-30.5 -364.065)" fill="gray"/>
      </g>
      <path id="Path_21719" data-name="Path 21719" d="M93.036,416.6H89.968a.362.362,0,0,0-.368.367h0a.362.362,0,0,0,.368.368H93.02a.362.362,0,0,0,.368-.368h0A.34.34,0,0,0,93.036,416.6Z" transform="translate(-75.283 -350.031)" fill="#efefef"/>
      <rect id="Rectangle_2603" data-name="Rectangle 2603" width="21.188" height="28.267" transform="translate(56.486 28.603)" fill="#9e9e9e"/>
      <rect id="Rectangle_2604" data-name="Rectangle 2604" width="8.805" height="5.657" transform="translate(63.31 46.483)" fill="#ddd"/>
      <path id="Path_21720" data-name="Path 21720" d="M398.517,290.9H396.2v2.4h0v2.365h2.317a1.4,1.4,0,0,1,1.47-1.406c.16,0,.3.016.463.016A9.7,9.7,0,0,0,405,293.153V290.9Z" transform="translate(-332.89 -244.417)" fill="#c7c7c7"/>
      <path id="Path_21721" data-name="Path 21721" d="M384.9,177.139,367.1,176.1v10.946c0,5.417,3.979,9.811,8.9,9.811h0c4.922,0,8.9-4.394,8.9-9.811v-9.907Z" transform="translate(-308.44 -147.961)" fill="#ddd"/>
      <g id="Group_22237" data-name="Group 22237" transform="translate(58.676 28.139)">
        <path id="Path_21722" data-name="Path 21722" d="M369.565,187.046v-10.8L367.2,176.1v10.946c0,5.417,3.979,9.811,8.9,9.811h0a9.584,9.584,0,0,0,1.182-.08C372.921,196.122,369.565,192.015,369.565,187.046Z" transform="translate(-367.2 -176.1)" fill="#c7c7c7"/>
        <path id="Path_21723" data-name="Path 21723" d="M388.836,180.827a29.431,29.431,0,0,0,10.8,1.119c5.257-.639-.927-4.155-.927-4.155l-8.948-.591-1.262.591" transform="translate(-385.096 -177.024)" fill="#c7c7c7"/>
        <path id="Path_21724" data-name="Path 21724" d="M442.142,212.4h-3.931a.515.515,0,0,0-.511.511h0a.515.515,0,0,0,.511.511h3.931a.515.515,0,0,0,.511-.511h0A.526.526,0,0,0,442.142,212.4Z" transform="translate(-426.435 -206.6)" fill="#c7c7c7"/>
        <path id="Path_21725" data-name="Path 21725" d="M381.527,212.316a.538.538,0,0,0-.527.5.5.5,0,0,0,.511.511h2.764a1.981,1.981,0,0,1,1.981,1.981v3.931h.5a1.173,1.173,0,0,0,1.166-1.166v-4.25A1.528,1.528,0,0,0,386.4,212.3h-4.874Z" transform="translate(-378.795 -206.516)" fill="#c7c7c7"/>
      </g>
      <path id="Path_21726" data-name="Path 21726" d="M414.208,273.1a4.749,4.749,0,0,1-2.589,0,.479.479,0,0,0-.575.256h0a.431.431,0,0,0,.336.559,5.562,5.562,0,0,0,3.068,0,.453.453,0,0,0,.336-.559h0A.5.5,0,0,0,414.208,273.1Z" transform="translate(-345.338 -229.443)" fill="#9b9b9b"/>
      <path id="Path_21727" data-name="Path 21727" d="M418.726,282.2h-.911a.413.413,0,0,0-.415.415h0a.413.413,0,0,0,.415.415h.911a.413.413,0,0,0,.415-.415h0A.4.4,0,0,0,418.726,282.2Z" transform="translate(-350.703 -237.107)" fill="#c7c7c7"/>
      <path id="Path_21728" data-name="Path 21728" d="M371.9,128.852v23.505l-2.541-1.2V140.054c0-2.461,1.119-8.677-5.753-9.124a13.43,13.43,0,0,1-7.75-3.036v.016h0a5.945,5.945,0,0,1-5.721,4.586v19.287L348,152.917V128.852a11.968,11.968,0,0,1,8.277-11.377h0a12.014,12.014,0,0,1,3.659-.575h0A11.958,11.958,0,0,1,371.9,128.852Z" transform="translate(-292.392 -98.22)" fill="#b1b1b1"/>
      <path id="Path_21729" data-name="Path 21729" d="M363.664,117.475a.056.056,0,0,0-.032.016,11.947,11.947,0,0,0-8.277,11.377v.623a4.325,4.325,0,0,1-.463.687,6.271,6.271,0,0,1-4.65,2.333V151.8l-2.141,1.135V128.852a11.968,11.968,0,0,1,8.277-11.377h0a12.014,12.014,0,0,1,3.659-.575h0A12.226,12.226,0,0,1,363.664,117.475Z" transform="translate(-292.476 -98.22)" fill="#9e9e9e"/>
      <path id="Path_21730" data-name="Path 21730" d="M359.986,323.724A41.011,41.011,0,0,1,333.7,349.435V326.329a2.4,2.4,0,0,1,1.326-2.157l6.647-3.372,5.848.879,1.294.208v.895l5.4-1.981Z" transform="translate(-280.377 -269.539)" fill="#efefef"/>
      <path id="Path_21731" data-name="Path 21731" d="M344.913,316.8l-1.6-.3-6.647,3.372a2.42,2.42,0,0,0-1.326,2.157v11.713H333.6V322.028a2.42,2.42,0,0,1,1.326-2.157l6.647-3.372,2.493-.8Z" transform="translate(-280.293 -265.254)" fill="#dcdcdc"/>
      <rect id="Rectangle_2605" data-name="Rectangle 2605" width="1.694" height="16.491" transform="translate(66.729 51.996)" fill="#f9f9f9"/>
      <path id="Path_21732" data-name="Path 21732" d="M419.677,325.6h-2.045v.16l-.032-.016v2.637l.735-1.342a.211.211,0,1,1,.192,0l.735,1.342v-1.726h.384l.032-1.055Z" transform="translate(-350.871 -273.572)" fill="#efefef"/>
      <g id="Group_22238" data-name="Group 22238" transform="translate(60.936 49.407)">
        <path id="Path_21733" data-name="Path 21733" d="M383.128,309.262l4.346,1.87a.82.82,0,0,1,.4,1.15l-1.406,2.541a.82.82,0,0,1-1.326.16l-3.579-3.931a.811.811,0,0,1,.128-1.214l.639-.463A.768.768,0,0,1,383.128,309.262Z" transform="translate(-381.346 -309.197)" fill="#f9f9f9"/>
        <path id="Path_21734" data-name="Path 21734" d="M427.7,309.262l-4.346,1.87a.82.82,0,0,0-.4,1.151l1.406,2.541a.82.82,0,0,0,1.326.16l3.579-3.931a.811.811,0,0,0-.128-1.214l-.639-.463A.768.768,0,0,0,427.7,309.262Z" transform="translate(-416.217 -309.197)" fill="#f9f9f9"/>
      </g>
      <g id="Group_22239" data-name="Group 22239" transform="translate(67.017 53.466)">
        <circle id="Ellipse_796" data-name="Ellipse 796" cx="0.543" cy="0.543" r="0.543" fill="#5f5f5f"/>
        <circle id="Ellipse_797" data-name="Ellipse 797" cx="0.543" cy="0.543" r="0.543" transform="translate(0 4.394)" fill="#5f5f5f"/>
        <circle id="Ellipse_798" data-name="Ellipse 798" cx="0.543" cy="0.543" r="0.543" transform="translate(0 8.789)" fill="#5f5f5f"/>
        <circle id="Ellipse_799" data-name="Ellipse 799" cx="0.543" cy="0.543" r="0.543" transform="translate(0 13.183)" fill="#5f5f5f"/>
      </g>
      <path id="Path_21735" data-name="Path 21735" d="M444.271,226.939a.784.784,0,0,1-.783.783h-2.621a.735.735,0,0,1-.543-.224.761.761,0,0,1-.224-.543.742.742,0,0,1,.1-.368c.128-.24.16-.639.463-.639l3.02-.048c.208,0,.383.447.431.256.048-.224.048.352.08.415A.888.888,0,0,1,444.271,226.939Z" transform="translate(-369.776 -189.803)" fill="#fff"/>
      <path id="Path_21736" data-name="Path 21736" d="M448.081,227.1a1.227,1.227,0,0,1-.479.959h-1.422a1.2,1.2,0,0,1-.479-.959,1.271,1.271,0,0,1,.16-.607l1.087-.192.959.192A1.125,1.125,0,0,1,448.081,227.1Z" transform="translate(-374.481 -190.139)" fill="#8d8d8d"/>
      <path id="Path_21737" data-name="Path 21737" d="M440.867,222.795h2.621a.734.734,0,0,1,.543.224,1.7,1.7,0,0,1,.144.176.821.821,0,0,0,.1-.4.893.893,0,0,0-.895-.895h-2.381a.893.893,0,0,0-.895.895.866.866,0,0,0,.1.4A.793.793,0,0,1,440.867,222.795Z" transform="translate(-369.776 -186.442)" fill="#5f5f5f"/>
      <path id="Path_21738" data-name="Path 21738" d="M387.771,226.939a.784.784,0,0,1-.783.783h-2.621a.734.734,0,0,1-.543-.224.761.761,0,0,1-.224-.543.742.742,0,0,1,.1-.368c.128-.24.16-.639.463-.639l3.02-.048c.208,0,.383.447.431.256.048-.224.048.352.08.415A.887.887,0,0,1,387.771,226.939Z" transform="translate(-322.304 -189.803)" fill="#fff"/>
      <path id="Path_21739" data-name="Path 21739" d="M391.581,227.1a1.227,1.227,0,0,1-.479.959h-1.422a1.2,1.2,0,0,1-.479-.959,1.271,1.271,0,0,1,.16-.607l1.087-.192.959.192A1.125,1.125,0,0,1,391.581,227.1Z" transform="translate(-327.009 -190.139)" fill="#8d8d8d"/>
      <path id="Path_21740" data-name="Path 21740" d="M392.188,233.2a.288.288,0,1,0,0,.575" transform="translate(-329.278 -195.937)" fill="#b5b5b5"/>
      <path id="Path_21741" data-name="Path 21741" d="M384.367,222.795h2.621a.735.735,0,0,1,.543.224,1.7,1.7,0,0,1,.144.176.821.821,0,0,0,.1-.4.893.893,0,0,0-.895-.895h-2.381a.893.893,0,0,0-.895.895.866.866,0,0,0,.1.4A.793.793,0,0,1,384.367,222.795Z" transform="translate(-322.304 -186.442)" fill="#5f5f5f"/>
      <path id="Path_21742" data-name="Path 21742" d="M151.556,328.414v12a40.912,40.912,0,0,1-47.219,1.294c-.623-.415-1.23-.847-1.838-1.294v-12a4.183,4.183,0,0,1,2.285-3.723l11.441-5.8,10.8-1.39,1.5.192h0l9.316,1.2,11.425,5.8A4.183,4.183,0,0,1,151.556,328.414Z" transform="translate(-86.121 -266.766)" fill="#878787"/>
      <path id="Path_21743" data-name="Path 21743" d="M128.53,317.692l-9.3,1.2-11.441,5.8a4.165,4.165,0,0,0-2.285,3.723v14.046c-.4-.24-.783-.5-1.166-.751-.623-.415-1.23-.847-1.838-1.294v-12a4.183,4.183,0,0,1,2.285-3.723l11.441-5.8,10.8-1.39Z" transform="translate(-86.121 -266.766)" fill="#777"/>
      <rect id="Rectangle_2606" data-name="Rectangle 2606" width="15.164" height="9.747" transform="translate(33.572 43.911)" fill="#ddd"/>
      <g id="Group_22240" data-name="Group 22240" transform="translate(21.524 22.818)">
        <circle id="Ellipse_800" data-name="Ellipse 800" cx="4.682" cy="4.682" r="4.682" fill="#c7c7c7"/>
        <circle id="Ellipse_801" data-name="Ellipse 801" cx="4.682" cy="4.682" r="4.682" transform="translate(29.402)" fill="#c7c7c7"/>
        <path id="Path_21744" data-name="Path 21744" d="M214.095,274.8H210.1v4.123h0V283h3.995a2.43,2.43,0,0,1,2.525-2.429c.272.016.527.016.8.016a16.934,16.934,0,0,0,7.83-1.917V274.8Z" transform="translate(-198.052 -253.707)" fill="#c7c7c7"/>
      </g>
      <path id="Path_21745" data-name="Path 21745" d="M184.08,78.89,150.3,77.1V95.939a16.885,16.885,0,0,0,16.89,16.89h0a16.885,16.885,0,0,0,16.89-16.89V78.89Z" transform="translate(-126.283 -64.78)" fill="#ddd"/>
      <path id="Path_21746" data-name="Path 21746" d="M165.571,29l-10.339.895a6.96,6.96,0,0,0-4.2,1.406h-.7v.607a6.969,6.969,0,0,0-2.061,4.938l-2.653,9.444c0,1.23-.511,2.253.655,2.461v6.775a16.885,16.885,0,0,0,16.89,16.89h0a18.312,18.312,0,0,0,1.87-.1,16.879,16.879,0,0,1-15.02-16.778V45.57a2.92,2.92,0,0,1,2.764-2.94h.144a6.96,6.96,0,0,1,4.378,1.534,8.01,8.01,0,0,0,5.864,2.061c4.394-.543,4.266-3.436,5.864-4.73a6.989,6.989,0,0,1,4.378-1.534h.064c2.029,0,3.611-.751,3.627,1.278,0,1.374,1.087,7.606,2.445,7.638a2.481,2.481,0,0,0,1.822-.735c.447-.447-.128-1.087-.128-1.774l-.623-2.3" transform="translate(-122.252 -24.366)" fill="#c7c7c7"/>
      <path id="Path_21747" data-name="Path 21747" d="M175.2,13.486v8.5a2.556,2.556,0,0,1-.735,1.774,2.5,2.5,0,0,1-4.266-1.822V20.661a3.71,3.71,0,0,0-3.691-3.691,6.961,6.961,0,0,0-4.378,1.534,9.373,9.373,0,0,1-11.729,0,3.859,3.859,0,0,0-.671-.463h-.016a6.154,6.154,0,0,0-1.39-.655A7.048,7.048,0,0,0,146.009,17a3.693,3.693,0,0,0-3.691,3.691v1.342a2.556,2.556,0,0,1-.735,1.774,2.508,2.508,0,0,1-4.282-1.774V13.486A13.489,13.489,0,0,1,150.786,0H161.7A13.492,13.492,0,0,1,175.2,13.486Z" transform="translate(-115.361)" fill="#949494"/>
      <path id="Path_21748" data-name="Path 21748" d="M145.841,13.486A13.489,13.489,0,0,1,159.328,0h-8.341A13.489,13.489,0,0,0,137.5,13.486v8.5a2.5,2.5,0,0,0,2.509,2.509,2.556,2.556,0,0,0,1.774-.735,2.527,2.527,0,0,0,.735-1.774V20.645a3.7,3.7,0,0,1,3.34-3.675l-.016-3.483Z" transform="translate(-115.529)" fill="#848484"/>
      <path id="Path_21749" data-name="Path 21749" d="M195.334,157.926a1.557,1.557,0,0,1-1.566,1.342h-4.075a1.533,1.533,0,0,1-1.087-.447,1.585,1.585,0,0,1-.447-1.278,1.557,1.557,0,0,1,1.566-1.342H193.8a1.533,1.533,0,0,1,1.087.447A1.585,1.585,0,0,1,195.334,157.926Z" transform="translate(-158.086 -131.24)" fill="#c7c7c7"/>
      <path id="Path_21750" data-name="Path 21750" d="M195.334,164.726a1.557,1.557,0,0,1-1.566,1.342h-4.075a1.533,1.533,0,0,1-1.087-.447,1.585,1.585,0,0,1-.447-1.278A1.557,1.557,0,0,1,189.725,163H193.8a1.533,1.533,0,0,1,1.087.447A1.585,1.585,0,0,1,195.334,164.726Z" transform="translate(-158.086 -136.954)" fill="#fff"/>
      <path id="Path_21751" data-name="Path 21751" d="M291.341,156.2h-4.107a1.534,1.534,0,0,0-1.534,1.534h0a1.534,1.534,0,0,0,1.534,1.534h4.107a1.534,1.534,0,0,0,1.534-1.534h0A1.534,1.534,0,0,0,291.341,156.2Z" transform="translate(-240.047 -131.24)" fill="#c7c7c7"/>
      <path id="Path_21752" data-name="Path 21752" d="M291.341,163h-4.107a1.534,1.534,0,0,0-1.534,1.534h0a1.534,1.534,0,0,0,1.534,1.534h4.107a1.534,1.534,0,0,0,1.534-1.534h0A1.534,1.534,0,0,0,291.341,163Z" transform="translate(-240.047 -136.954)" fill="#fff"/>
      <path id="Path_21753" data-name="Path 21753" d="M289.138,136.9h-6.775a.859.859,0,0,0-.863.863h0a.859.859,0,0,0,.863.863h6.775a.859.859,0,0,0,.863-.863h0A.859.859,0,0,0,289.138,136.9Z" transform="translate(-236.519 -115.024)" fill="#c7c7c7"/>
      <g id="Group_22241" data-name="Group 22241" transform="translate(31.623 26.03)">
        <path id="Path_21754" data-name="Path 21754" d="M201.991,163.939a2.045,2.045,0,1,1-4.091,0,1.916,1.916,0,0,1,.288-1.039h3.531A2.336,2.336,0,0,1,201.991,163.939Z" transform="translate(-197.9 -162.9)" fill="#5f5f5f"/>
        <path id="Path_21755" data-name="Path 21755" d="M299.491,163.939a2.045,2.045,0,1,1-4.091,0,1.917,1.917,0,0,1,.288-1.039h3.531A2.336,2.336,0,0,1,299.491,163.939Z" transform="translate(-279.82 -162.9)" fill="#5f5f5f"/>
      </g>
      <g id="Group_22242" data-name="Group 22242" transform="translate(29.401 21.86)">
        <path id="Path_21756" data-name="Path 21756" d="M184.892,136.816a.874.874,0,0,0-.895.847.863.863,0,0,0,.863.879h4.762a3.423,3.423,0,0,1,3.42,3.42v8.485h.863a2.015,2.015,0,0,0,2.013-2.013v-9.012A2.622,2.622,0,0,0,193.3,136.8l-8.405.016Z" transform="translate(-183.997 -136.8)" fill="#c7c7c7"/>
        <path id="Path_21757" data-name="Path 21757" d="M236.409,241.308a9.232,9.232,0,0,1-5.8,0,1.07,1.07,0,0,0-1.294.5h0a.972.972,0,0,0,.7,1.278,11.053,11.053,0,0,0,6.967,0,1,1,0,0,0,.719-1.278h0A1.056,1.056,0,0,0,236.409,241.308Z" transform="translate(-222.012 -224.562)" fill="#c7c7c7"/>
        <path id="Path_21758" data-name="Path 21758" d="M248.733,262.3h-1.6a.743.743,0,0,0-.735.735h0a.744.744,0,0,0,.735.735h1.582a.744.744,0,0,0,.735-.735h0A.71.71,0,0,0,248.733,262.3Z" transform="translate(-236.429 -242.246)" fill="#c7c7c7"/>
      </g>
      <path id="Path_21759" data-name="Path 21759" d="M240.35,391.43H233l1.742-15.931h0l.751-7h2.365l2.045,18.807Z" transform="translate(-195.768 -309.617)" fill="#7c7c7c"/>
      <path id="Path_21760" data-name="Path 21760" d="M242.983,341.8h-1.678a1.8,1.8,0,0,1-1.806-1.806v-2.189A1.8,1.8,0,0,1,241.306,336h1.678a1.8,1.8,0,0,1,1.806,1.806v2.189A1.814,1.814,0,0,1,242.983,341.8Z" transform="translate(-201.23 -282.31)" fill="#5f5f5f"/>
      <g id="Group_22243" data-name="Group 22243" transform="translate(29.478 48.948)">
        <path id="Path_21761" data-name="Path 21761" d="M187.565,306.433l7.478,3.212a1.437,1.437,0,0,1,.687,2L193.3,316a1.423,1.423,0,0,1-2.285.272l-6.168-6.759a1.412,1.412,0,0,1,.208-2.093l1.1-.8A1.4,1.4,0,0,1,187.565,306.433Z" transform="translate(-184.477 -306.325)" fill="#777"/>
        <path id="Path_21762" data-name="Path 21762" d="M264.357,306.433l-7.478,3.212a1.437,1.437,0,0,0-.687,2L258.62,316a1.423,1.423,0,0,0,2.285.272l6.168-6.759a1.412,1.412,0,0,0-.208-2.093l-1.1-.8A1.4,1.4,0,0,0,264.357,306.433Z" transform="translate(-244.587 -306.325)" fill="#777"/>
      </g>
      <path id="Path_21763" data-name="Path 21763" d="M240.35,428.231H233l1.742-15.931c-.575,5.273,2.828,10.5,5.161,11.809Z" transform="translate(-195.768 -346.418)" fill="#5f5f5f"/>
    </g>
    <g id="Group_22246" data-name="Group 22246" transform="translate(130 -19)">
      <rect id="Rectangle_2607" data-name="Rectangle 2607" width="30" height="30" rx="4" transform="matrix(0.966, -0.259, 0.259, 0.966, 191.5, 404.765)" fill="#d9d9d9"/>
      <g id="Group_22244" data-name="Group 22244" transform="translate(-420.5 38)">
        <g id="Rectangle_2484" data-name="Rectangle 2484" transform="matrix(0.966, -0.259, 0.259, 0.966, 605, 362.765)" fill="#1ec00b" stroke="#1ec00b" stroke-width="1">
          <rect width="30" height="30" rx="4" stroke="none"/>
          <rect x="0.5" y="0.5" width="29" height="29" rx="3.5" fill="none"/>
        </g>
        <path id="Path_19939" data-name="Path 19939" d="M127.919,127.919a1.1,1.1,0,0,1-1.547,0l-3.587-3.587-3.587,3.587a1.094,1.094,0,0,1-1.547-1.547l3.587-3.587-3.587-3.587a1.094,1.094,0,0,1,1.547-1.547l3.587,3.587,3.587-3.587a1.094,1.094,0,0,1,1.547,1.547l-3.587,3.587,3.587,3.587A1.1,1.1,0,0,1,127.919,127.919Z" transform="translate(578.503 205.718) rotate(30)" fill="#fff"/>
      </g>
    </g>
  </g>
</svg>
