<svg xmlns="http://www.w3.org/2000/svg" width="51.364" height="48" viewBox="0 0 51.364 48">
  <g id="Group_23871" data-name="Group 23871" transform="translate(-541 -982)">
    <g id="member-card" transform="translate(525 950)">
      <g id="Group_23865" data-name="Group 23865" transform="translate(16.897 32.897)">
        <g id="Group_23864" data-name="Group 23864" transform="translate(0 0)">
          <path id="Path_23384" data-name="Path 23384" d="M6.429,0h.429V16.286H0V6.429A6.429,6.429,0,0,1,6.429,0Z" transform="translate(33.881 42.437) rotate(-153.948)" fill="#ffd4cf"/>
          <path id="Path_23385" data-name="Path 23385" d="M6.429,0h.429V16.286H0V6.429A6.429,6.429,0,0,1,6.429,0Z" transform="translate(29.261 39.005) rotate(-153.948)" fill="#ffd4cf"/>
          <path id="Path_23386" data-name="Path 23386" d="M65.429,248.267l-27.786,7.821a1.071,1.071,0,0,1-1.322-.741L32,240l28.286.043Z" transform="translate(-31.183 -218.612)" fill="#e2a200"/>
          <g id="Group_23863" data-name="Group 23863">
            <rect id="Rectangle_7576" data-name="Rectangle 7576" width="43" height="27" rx="10" transform="translate(0.104 0.103)" fill="#1ec00b"/>
            <path id="Path_23387" data-name="Path 23387" d="M306.143,80h4.286a2.143,2.143,0,0,1,2.143,2.143v2.143h-6.429a2.143,2.143,0,1,1,0-4.286Z" transform="translate(-274.04 -75.754)" fill="#1ec00b"/>
          </g>
          <path id="Path_23388" data-name="Path 23388" d="M307.049,122.857V108.286l-5.261-8.565a6.429,6.429,0,0,1,1.671-8.707l1.018-.728,6.857,8.571H312.9a1.071,1.071,0,0,0,1.071-1.071V80h1.607a2.143,2.143,0,0,1,2.1,1.723l3.084,15.42-2.571,12v13.714Z" transform="translate(-271.153 -75.754)" fill="#ffd4cf"/>
        </g>
        <path id="Path_23389" data-name="Path 23389" d="M76,84.286H71.714V80H68.286v4.286H64v3.429h4.286V92h3.429V87.714H76Z" transform="translate(-59.755 -75.754)" fill="#fff"/>
      </g>
      <path id="Path_23390" data-name="Path 23390" d="M306.286,75a3,3,0,0,0-3-3H299a3,3,0,0,0,0,6h6.429a.857.857,0,0,0,.857-.857Zm-1.714,1.286H299a1.286,1.286,0,0,1,0-2.571h4.286A1.287,1.287,0,0,1,304.571,75Z" transform="translate(-250 -35.714)" fill="#fff"/>
      <path id="Path_23391" data-name="Path 23391" d="M56,216h4.286v1.714H56Z" transform="translate(-35.714 -164.286)" fill="#fff"/>
      <path id="Path_23392" data-name="Path 23392" d="M112,216h9.429v1.714H112Z" transform="translate(-85.714 -164.286)" fill="#fff"/>
      <path id="Path_23393" data-name="Path 23393" d="M56,248h1.714v1.714H56Z" transform="translate(-35.714 -192.857)" fill="#fff"/>
      <path id="Path_23394" data-name="Path 23394" d="M88,248h1.714v1.714H88Z" transform="translate(-64.286 -192.857)" fill="#fff"/>
      <path id="Path_23395" data-name="Path 23395" d="M120,248h1.714v1.714H120Z" transform="translate(-92.857 -192.857)" fill="#fff"/>
      <path id="Path_23396" data-name="Path 23396" d="M152,248h1.714v1.714H152Z" transform="translate(-121.429 -192.857)" fill="#fff"/>
      <path id="Path_23397" data-name="Path 23397" d="M184,248h1.714v1.714H184Z" transform="translate(-150 -192.857)" fill="#fff"/>
      <path id="Path_23398" data-name="Path 23398" d="M216,248h1.714v1.714H216Z" transform="translate(-178.571 -192.857)" fill="#fff"/>
      <path id="Path_23399" data-name="Path 23399" d="M344,144h5.143v1.714H344Z" transform="translate(-292.857 -100)" fill="#fff"/>
      <path id="Path_23400" data-name="Path 23400" d="M296,144h3.429v1.714H296Z" transform="translate(-250 -100)" fill="#fff"/>
      <path id="Path_23401" data-name="Path 23401" d="M455.395,398h1.714v10.571h-1.714Z" transform="translate(-392.317 -328.571)"/>
      <path id="Path_23402" data-name="Path 23402" d="M67.347,54.118,64.263,38.7a3.008,3.008,0,0,0-2.942-2.412h-.75V33.929A1.931,1.931,0,0,0,58.643,32H24.571v1.714H58.643a.214.214,0,0,1,.214.214v21a.214.214,0,0,1-.214.214H57.49l-6.6-8.25a.857.857,0,0,0-1.168-.162l-1.019.728a7.279,7.279,0,0,0-1.9,9.861l1.3,2.109H17.929a.214.214,0,0,1-.214-.214V33.929a.214.214,0,0,1,.214-.214h4.929V32H17.929A1.931,1.931,0,0,0,16,33.929V59.214a1.931,1.931,0,0,0,1.929,1.929h.825l2.456,8.723A1.925,1.925,0,0,0,23.588,71.2l16.6-4.674-.963,1.968a.857.857,0,0,0,.393,1.146l.385.188a7.253,7.253,0,0,0,4.568.609l-.726,1.485a.857.857,0,0,0,.393,1.146l.385.188a7.238,7.238,0,0,0,3.185.736,7.358,7.358,0,0,0,4.122-1.263V80H53.65V65.429a.857.857,0,0,0-.127-.449l-5.261-8.565-.009-.015A5.566,5.566,0,0,1,49.7,48.854l.358-.256,6.35,7.938a.857.857,0,0,0,.669.321h1.565a1.931,1.931,0,0,0,1.929-1.929V38h.75a1.289,1.289,0,0,1,1.261,1.034L65.631,54.28,63.1,66.106a.858.858,0,0,0-.019.179v3.429h1.714V66.377l2.552-11.911a.858.858,0,0,0,0-.348ZM23.124,69.55a.214.214,0,0,1-.264-.148l-2.325-8.259H49.154l.565.921Zm18.03-1.087,1.252-2.56,6.639-1.869-.831,1.7a5.579,5.579,0,0,1-7.061,2.731Zm10.782,2.018a5.6,5.6,0,0,1-6.161,1.41l1.143-2.337a7.243,7.243,0,0,0,2.837-3.068l1.189-2.43.992,1.615Z" fill="#222"/>
      <path id="Path_23403" data-name="Path 23403" d="M56,77.143v3.429a.857.857,0,0,0,.857.857h3.429v3.429a.857.857,0,0,0,.857.857h3.429a.857.857,0,0,0,.857-.857V81.429h3.429a.857.857,0,0,0,.857-.857V77.143a.857.857,0,0,0-.857-.857H65.429V72.857A.857.857,0,0,0,64.571,72H61.143a.857.857,0,0,0-.857.857v3.429H56.857A.857.857,0,0,0,56,77.143ZM57.714,78h3.429A.857.857,0,0,0,62,77.143V73.714h1.714v3.429a.857.857,0,0,0,.857.857H68v1.714H64.571a.857.857,0,0,0-.857.857V84H62V80.571a.857.857,0,0,0-.857-.857H57.714Z" transform="translate(-35.714 -35.714)" fill="#0066b3"/>
    </g>
  </g>
</svg>
