<svg xmlns="http://www.w3.org/2000/svg" width="85" height="12.153" viewBox="0 0 85 12.153"><defs><style>.a{fill:#fff;}</style></defs><g transform="translate(-641 -757)"><path class="a" d="M384.759,4.221A40.909,40.909,0,0,1,397.635,3.9,13.128,13.128,0,0,1,402.8,5.289a3.179,3.179,0,0,1,1.646,2.559c-2.914.06-5.828.03-8.74.021a4.829,4.829,0,0,0-3.541-1.393,10.912,10.912,0,0,0-5.071.82,5.063,5.063,0,0,0-2.819,3.251,1.521,1.521,0,0,0,.84,1.649,8.637,8.637,0,0,0,3.656.688,7.982,7.982,0,0,0,4.689-1.138c.136-.077.255-.224.429-.2q4.419-.016,8.839.007a9.755,9.755,0,0,1-3.768,2.466,23.481,23.481,0,0,1-5.5,1.3,47.132,47.132,0,0,1-6.252.369,30.723,30.723,0,0,1-8.41-.99,6.538,6.538,0,0,1-3.345-2.062,2.982,2.982,0,0,1-.331-3.057,6.842,6.842,0,0,1,2.909-2.917A22.577,22.577,0,0,1,384.759,4.221Z" transform="translate(298.427 753.458)"/><path class="a" d="M8.734,8.045c3.062-.05,6.126.029,9.189.017-.563,1.272-1.135,2.541-1.7,3.813,2.981.005,5.961-.01,8.942.008.583-1.267,1.127-2.555,1.711-3.822,3.148,0,6.294-.011,9.442,0q-2.562,5.662-5.11,11.328c-2.636.057-5.274.023-7.91.03a9.968,9.968,0,0,1-1.494-.053c.7-1.483,1.355-2.984,2.025-4.478H14.86c-.648,1.5-1.318,2.989-1.945,4.495-3.1.066-6.2.041-9.294.023C5.3,15.607,7.044,11.838,8.734,8.045Z" transform="translate(637.38 749.361)"/><path class="a" d="M712.663,8h9.5q-1.923,4.313-3.867,8.617,6.543,0,13.087.012-.622,1.38-1.244,2.758-11.283.009-22.564,0C709.247,15.582,710.961,11.793,712.663,8Z" transform="translate(-5.378 749.388)"/></g></svg>