<svg xmlns="http://www.w3.org/2000/svg" width="48" height="48.003" viewBox="0 0 48 48.003">
  <g id="Medical_insurance" data-name="Medical insurance" transform="translate(-2 -1.999)">
    <path id="Path_25320" data-name="Path 25320" d="M17.6,8A9.61,9.61,0,0,0,8,17.6H9.6a7.977,7.977,0,0,1,13.647-5.634l1.13-1.133A9.559,9.559,0,0,0,17.6,8Z" transform="translate(-1.2 -1.2)" fill="#777"/>
    <path id="Path_25321" data-name="Path 25321" d="M49.481,21.25l-.2-.074A17.1,17.1,0,0,0,50,16.4,14.374,14.374,0,0,0,26,5.7,14.374,14.374,0,0,0,2,16.4c0,6.544,3.994,13.374,11.872,20.3a73.711,73.711,0,0,0,11.742,8.4.8.8,0,0,0,.774,0c.054-.03,1.246-.694,3.08-1.884l6.359,6.543a.8.8,0,0,0,1.147,0l9.512-9.786A11.633,11.633,0,0,0,50,31.6V22a.8.8,0,0,0-.518-.75ZM26,43.478C23,41.729,3.6,29.892,3.6,16.4A12.777,12.777,0,0,1,25.435,7.366a.8.8,0,0,0,1.13,0A12.777,12.777,0,0,1,48.4,16.4a15.411,15.411,0,0,1-.62,4.213l-11.1-4.16a.812.812,0,0,0-.56,0l-12.8,4.8A.8.8,0,0,0,22.8,22v9.6a11.636,11.636,0,0,0,3.51,8.368l2.02,2.08C27.272,42.726,26.45,43.216,26,43.478ZM48.4,31.6a10.073,10.073,0,0,1-3.053,7.249l-8.947,9.2-8.947-9.2-.007-.008A10.063,10.063,0,0,1,24.4,31.6V22.554l12-4.5,12,4.5Z" transform="translate(0 0)" fill="#777"/>
    <path id="Path_25322" data-name="Path 25322" d="M42.092,24.062l-9.6,4A.8.8,0,0,0,32,28.8v7.086a8.744,8.744,0,0,0,2.578,6.223l7.257,7.257a.8.8,0,0,0,1.131,0l7.257-7.257A8.744,8.744,0,0,0,52.8,35.886V28.8a.8.8,0,0,0-.492-.738l-9.6-4A.8.8,0,0,0,42.092,24.062ZM51.2,29.334v6.552a7.158,7.158,0,0,1-2.109,5.092L42.4,47.669l-6.691-6.691A7.158,7.158,0,0,1,33.6,35.886V29.334l8.8-3.667Z" transform="translate(-6 -4.4)" fill="#777"/>
    <path id="Path_25323" data-name="Path 25323" d="M41.889,37.768,40.758,38.9l2.828,2.828a.8.8,0,0,0,1.131,0l6.788-6.788-1.131-1.131L44.152,40.03Z" transform="translate(-7.752 -6.362)" fill="#777"/>
  </g>
</svg>
