<svg xmlns="http://www.w3.org/2000/svg" width="48.042" height="48.042" viewBox="0 0 48.042 48.042">
  <g id="Outline" transform="translate(-2 -2)">
    <path id="Path_25310" data-name="Path 25310" d="M19.007,18.014A8.007,8.007,0,1,0,11,10.007a8.007,8.007,0,0,0,8.007,8.007Zm0-14.412A6.406,6.406,0,1,1,12.6,10.007,6.406,6.406,0,0,1,19.007,3.6Z" transform="translate(-1.794)" fill="#777"/>
    <rect id="Rectangle_8747" data-name="Rectangle 8747" width="2" height="1" transform="translate(16 24.042)" fill="#777"/>
    <path id="Path_25311" data-name="Path 25311" d="M55.706,28.208a27.957,27.957,0,0,1-10.12-3.114.8.8,0,0,0-.753,0,27.957,27.957,0,0,1-10.12,3.114A.8.8,0,0,0,34,29v9.484A17.468,17.468,0,0,0,44.9,54.564a.8.8,0,0,0,.617,0,17.468,17.468,0,0,0,10.9-16.076V29a.8.8,0,0,0-.713-.8Zm-.888,10.28A15.858,15.858,0,0,1,45.21,52.954,15.858,15.858,0,0,1,35.6,38.488V29.712A29.531,29.531,0,0,0,45.21,26.7a29.525,29.525,0,0,0,9.608,3.007Z" transform="translate(-6.378 -4.584)" fill="#777"/>
    <path id="Path_25312" data-name="Path 25312" d="M39.335,40,38.2,41.139l4.8,4.8a.8.8,0,0,0,1.132,0l9.608-9.608L52.612,35.2l-9.039,9.048Z" transform="translate(-7.215 -6.617)" fill="#777"/>
    <path id="Path_25313" data-name="Path 25313" d="M22.017,35.612H18.372L12.384,24.1a11.386,11.386,0,0,0,10.594-.5h1.441a6.372,6.372,0,0,1,4.8,2.193c.6-.091,1.193-.207,1.782-.338A7.994,7.994,0,0,0,24.419,22H22.754a.807.807,0,0,0-.428.123,9.736,9.736,0,0,1-10.226,0A.807.807,0,0,0,11.672,22H10.007A8.016,8.016,0,0,0,2,30.007v9.608a4.008,4.008,0,0,0,4,4h2.4v7.206h1.6V43.619h12.01a4,4,0,1,0,0-8.007ZM6,42.017a2.4,2.4,0,0,1-2.4-2.4V30.007a6.372,6.372,0,0,1,1.505-4.116l5.055,9.721H8.406v1.6h2.589l2.5,4.8Zm9.294,0L6.329,24.771a6.362,6.362,0,0,1,3.678-1.17h.315L19.9,42.017Zm6.72,0H21.7l-2.5-4.8h2.813a2.4,2.4,0,1,1,0,4.8Z" transform="translate(0 -3.986)" fill="#777"/>
  </g>
</svg>
