<svg xmlns="http://www.w3.org/2000/svg" width="81" height="81" viewBox="0 0 81 81">
  <g id="Group_27911" data-name="Group 27911" transform="translate(-1107 -1043)">
    <g id="Ellipse_3261" data-name="Ellipse 3261" transform="translate(1107 1043)" fill="none" stroke="#2e4770" stroke-width="1" stroke-dasharray="2 3">
      <circle cx="40.5" cy="40.5" r="40.5" stroke="none"/>
      <circle cx="40.5" cy="40.5" r="40" fill="none"/>
    </g>
    <g id="Group_23810" data-name="Group 23810" transform="translate(95 229)">
      <path id="Path_23074" data-name="Path 23074" d="M26.923,89.944H3.555A3.5,3.5,0,0,0,.05,93.449v25.86a3.5,3.5,0,0,0,3.505,3.505H26.923a3.5,3.5,0,0,0,3.505-3.505V93.449A3.5,3.5,0,0,0,26.923,89.944Z" transform="translate(1036.949 752.066)" fill="#3268c1"/>
      <path id="Path_23076" data-name="Path 23076" d="M55.735,121.093v25.86a1.157,1.157,0,0,1-1.168,1.168H31.2a1.157,1.157,0,0,1-1.168-1.168v-25.86a1.157,1.157,0,0,1,1.168-1.168H54.567A1.157,1.157,0,0,1,55.735,121.093Z" transform="translate(1009.305 724.422)" fill="#3268c1"/>
      <path id="Path_23078" data-name="Path 23078" d="M77.538,4.674H76.252a5.843,5.843,0,0,0-11.45,0H63.517a3.5,3.5,0,0,0-3.505,3.505v2.337a1.157,1.157,0,0,0,1.168,1.168H79.874a1.157,1.157,0,0,0,1.168-1.168V8.179A3.5,3.5,0,0,0,77.538,4.674Z" transform="translate(981.66 835)" fill="#3a5cac"/>
      <path id="Path_23079" data-name="Path 23079" d="M205.444,8.179v2.337a1.157,1.157,0,0,1-1.168,1.168h-9.347V0a5.842,5.842,0,0,1,5.725,4.674h1.285A3.5,3.5,0,0,1,205.444,8.179Z" transform="translate(857.26 835)" fill="#3a5cac"/>
      <path id="Path_23080" data-name="Path 23080" d="M182.275,61.131a1.168,1.168,0,1,1-1.168-1.168A1.157,1.157,0,0,1,182.275,61.131Z" transform="translate(871.082 779.711)"/>
      <path id="Path_23081" data-name="Path 23081" d="M182.275,61.131a1.168,1.168,0,1,1-1.168-1.168A1.157,1.157,0,0,1,182.275,61.131Z" transform="translate(871.082 779.711)" fill="#fff"/>
      <path id="Path_23082" data-name="Path 23082" d="M194.929,62.3V59.963a1.168,1.168,0,1,1,0,2.337Z" transform="translate(857.26 779.711)" fill="#fff"/>
      <path id="Path_23083" data-name="Path 23083" d="M63.52,216.877a1.166,1.166,0,0,1-.826-.342L60.357,214.2a1.168,1.168,0,0,1,1.652-1.652l1.19,1.19,1.612-3.223a1.169,1.169,0,1,1,2.09,1.045l-2.337,4.674a1.165,1.165,0,0,1-1.045.646Z" transform="translate(981.656 641.49)" fill="#fff"/>
      <path id="Path_23084" data-name="Path 23084" d="M63.52,338.818a1.166,1.166,0,0,1-.826-.342l-2.337-2.337a1.168,1.168,0,0,1,1.652-1.652l1.19,1.19,1.612-3.223A1.169,1.169,0,0,1,66.9,333.5l-2.337,4.674a1.165,1.165,0,0,1-1.045.646Z" transform="translate(981.656 529.053)" fill="#fff"/>
      <path id="Path_23085" data-name="Path 23085" d="M218.1,212.206h-7.01a1.168,1.168,0,1,1,0-2.337h7.01a1.168,1.168,0,0,1,0,2.337Z" transform="translate(843.438 641.488)" fill="#fff"/>
      <path id="Path_23086" data-name="Path 23086" d="M191.622,271a1.157,1.157,0,0,1-1.168,1.168h-9.347a1.168,1.168,0,0,1,0-2.337h9.347A1.157,1.157,0,0,1,191.622,271Z" transform="translate(871.082 586.198)" fill="#fff"/>
      <path id="Path_23087" data-name="Path 23087" d="M218.1,334.131h-7.01a1.168,1.168,0,1,1,0-2.337h7.01a1.168,1.168,0,0,1,0,2.337Z" transform="translate(843.438 529.066)" fill="#fff"/>
      <path id="Path_23088" data-name="Path 23088" d="M191.622,392.925a1.157,1.157,0,0,1-1.168,1.168h-9.347a1.168,1.168,0,1,1,0-2.337h9.347A1.157,1.157,0,0,1,191.622,392.925Z" transform="translate(871.082 473.777)" fill="#fff"/>
    </g>
  </g>
</svg>
