<svg xmlns="http://www.w3.org/2000/svg" width="18.01" height="18.01" viewBox="0 0 18.01 18.01">
  <g id="Group_27849" data-name="Group 27849" transform="translate(-64 -115)">
    <path id="Path_25235" data-name="Path 25235" d="M18.608,14.4h-.3v1.8l-.9-.36V18.6l-.6.6-.6-.6V15.843l-.9.36V14.4h-.3a1.8,1.8,0,0,0-1.8,1.8v3.3H3.9V5.7H6.3v.6h6V5.7h2.4v3.11a2.682,2.682,0,0,0-.6,1.693v.3h.6l2.7-1.2,1.5,1.2h.6v-.3a2.7,2.7,0,0,0-3.9-2.419V5.4a.6.6,0,0,0-.6-.6h-2.7a.6.6,0,0,0-.6-.6h-.931a1.5,1.5,0,0,0-2.942,0H6.9a.6.6,0,0,0-.6.6H3.6a.6.6,0,0,0-.6.6V19.806a.6.6,0,0,0,.6.6H20.409V16.2A1.8,1.8,0,0,0,18.608,14.4ZM9.3,3.9a.6.6,0,1,1-.6.6.6.6,0,0,1,.6-.6Z" transform="translate(61.301 112.304)" fill="#e8edfc"/>
    <path id="Path_25236" data-name="Path 25236" d="M48.2,42.441V41H47v1.441l.6-.24Z" transform="translate(30.508 85.707)" fill="#9bc9ff"/>
    <path id="Path_25237" data-name="Path 25237" d="M20.4,21.6V20.4h1.2V19.2H20.4V18H19.2v1.2H18v1.2h1.2v1.2Z" transform="translate(50.803 101.803)" fill="#9bc9ff"/>
    <path id="Path_25238" data-name="Path 25238" d="M17.3,20h.9v.9a.3.3,0,0,0,.3.3h1.2a.3.3,0,0,0,.3-.3V20h.9a.3.3,0,0,0,.3-.3V18.5a.3.3,0,0,0-.3-.3H20v-.9a.3.3,0,0,0-.3-.3H18.5a.3.3,0,0,0-.3.3v.9h-.9a.3.3,0,0,0-.3.3v1.2A.3.3,0,0,0,17.3,20Zm.3-1.2h.9a.3.3,0,0,0,.3-.3v-.9h.6v.9a.3.3,0,0,0,.3.3h.9v.6h-.9a.3.3,0,0,0-.3.3v.9h-.6v-.9a.3.3,0,0,0-.3-.3h-.9Z" transform="translate(51.502 102.502)" fill="#57a4ff"/>
    <path id="Path_25239" data-name="Path 25239" d="M21.9,5a.9.9,0,1,0,.9.9A.9.9,0,0,0,21.9,5Zm0,1.2a.3.3,0,1,1,.3-.3A.3.3,0,0,1,21.9,6.2Z" transform="translate(48.703 110.9)" fill="#57a4ff"/>
    <path id="Path_25240" data-name="Path 25240" d="M17.909,13.406h-.218a2.4,2.4,0,0,0,.8-1.5h.021a.9.9,0,0,0,.534-1.621.294.294,0,0,0,.066-.18V9.8a3,3,0,0,0-3.9-2.863V4.7a.9.9,0,0,0-.9-.9H11.85A.9.9,0,0,0,11,3.2h-.7a1.8,1.8,0,0,0-3.4,0H6.2a.9.9,0,0,0-.845.6H2.9a.9.9,0,0,0-.9.9V19.109a.9.9,0,0,0,.9.9H19.71a.3.3,0,0,0,.3-.3v-4.2A2.1,2.1,0,0,0,17.909,13.406Zm-2.1,1.944.3-.12.3.12v2.434l-.3.3-.3-.3Zm.412-.722a.3.3,0,0,0-.223,0l-.189.076v-.7h.6v.7Zm-1.312-.622h.3v.937l-.3.12Zm2.1,0h.3v1.057l-.3-.12Zm.9-2.4a1.8,1.8,0,1,1-3.6,0V10.3l2.357-1.047,1.245,1Zm.6-.3v-.6a.3.3,0,0,1,0,.6Zm0-1.5h-.195L16.9,8.669a.3.3,0,0,0-.309-.04L13.943,9.8h-.236a2.4,2.4,0,1,1,4.8,0Zm-4.8,1.5a.3.3,0,0,1,0-.6Zm.9-6.6V7.208a3.013,3.013,0,0,0-.3.2V5a.3.3,0,0,0-.3-.3h-2.1V4.4h2.4A.3.3,0,0,1,14.607,4.7Zm-2.7.9V5.3h1.8V8.011a2.981,2.981,0,0,0-.6,1.793v.3a.294.294,0,0,0,.066.18.9.9,0,0,0,.534,1.621h.021a2.4,2.4,0,0,0,.8,1.5h-.218a2.1,2.1,0,0,0-2.011,1.5H6.5v.6h5.7v1.2H6.5v.6h5.7v1.2H3.5V5.3H5.3v.3a.3.3,0,0,0,.3.3h6A.3.3,0,0,0,11.905,5.6Zm-6-1.5a.3.3,0,0,1,.3-.3h.931a.3.3,0,0,0,.294-.24,1.2,1.2,0,0,1,2.353,0,.3.3,0,0,0,.294.24H11a.3.3,0,0,1,.3.3V5.3H5.9ZM2.6,19.109V4.7a.3.3,0,0,1,.3-.3H5.3v.3H3.2a.3.3,0,0,0-.3.3V18.809a.3.3,0,0,0,.3.3h9v.3H2.9A.3.3,0,0,1,2.6,19.109Zm16.809.3h-.6v-3.3h-.6v3.3h-4.2v-3.3h-.6v3.3h-.6v-3.9a1.5,1.5,0,0,1,1.5-1.5v1.5a.3.3,0,0,0,.412.279l.489-.2v2.318a.3.3,0,0,0,.088.212l.6.6a.3.3,0,0,0,.424,0l.6-.6a.3.3,0,0,0,.088-.212V15.59l.489.2a.3.3,0,0,0,.412-.279v-1.5a1.5,1.5,0,0,1,1.5,1.5Z" transform="translate(62 113)" fill="#39f"/>
    <path id="Path_25241" data-name="Path 25241" d="M11,33h1.2v.6H11Z" transform="translate(55.701 91.305)" fill="#57a4ff"/>
    <path id="Path_25242" data-name="Path 25242" d="M17,33h6v.6H17Z" transform="translate(51.502 91.305)" fill="#57a4ff"/>
    <path id="Path_25243" data-name="Path 25243" d="M11,39h1.2v.6H11Z" transform="translate(55.701 87.106)" fill="#57a4ff"/>
    <path id="Path_25244" data-name="Path 25244" d="M17,39h6v.6H17Z" transform="translate(51.502 87.106)" fill="#57a4ff"/>
    <path id="Path_25245" data-name="Path 25245" d="M11,45h1.2v.6H11Z" transform="translate(55.701 82.907)" fill="#57a4ff"/>
    <path id="Path_25246" data-name="Path 25246" d="M11,51h1.2v.6H11Z" transform="translate(55.701 78.708)" fill="#57a4ff"/>
  </g>
</svg>
