<svg xmlns="http://www.w3.org/2000/svg" width="18.664" height="18.082" viewBox="0 0 18.664 18.082">
  <g id="Group_27850" data-name="Group 27850" transform="translate(-249.449 -117.126)">
    <path id="Shape" d="M24.1,3.05V7.664a2.98,2.98,0,0,1-1.259,2.428L19.7,12.332a.258.258,0,0,1-.3,0l-.306-.219-2.836-2.021A2.98,2.98,0,0,1,15,7.664V3.05a.138.138,0,0,1,.085-.129l4.01-1.737.4-.171a.154.154,0,0,1,.115,0l4.407,1.907A.138.138,0,0,1,24.1,3.05Z" transform="translate(239.52 116.424)" fill="#e8edfc"/>
    <path id="Shape-2" data-name="Shape" d="M23.084,3.475V8.089a2.992,2.992,0,0,1-1.243,2.428l-2.8,2.021-2.8-2.021A2.992,2.992,0,0,1,15,8.089V3.475a.138.138,0,0,1,.084-.129L19.042,1.61,23,3.347A.138.138,0,0,1,23.084,3.475Z" transform="translate(239.572 115.999)" fill="#fff"/>
    <path id="Shape-3" data-name="Shape" d="M19.752,11.833A1.835,1.835,0,0,1,19,10.356v-3.9L22.294,5l3.294,1.455v3.9a1.833,1.833,0,0,1-.752,1.478l-2.541,1.85Z" transform="translate(236.775 113.624)" fill="#e8edfc"/>
    <path id="Shape-4" data-name="Shape" d="M38.9,31.562l1.368-1.368a3.264,3.264,0,0,0,.692-1.021l.67-1.563a.655.655,0,1,1,1.2.529l-1.173,2.582a2.9,2.9,0,0,1-.589.85L38.9,33.736H36V32.88a2.831,2.831,0,0,1,.591-1.774,1.871,1.871,0,0,1,.859-.631,6.423,6.423,0,0,0,1.812-1.155,1.074,1.074,0,0,1,1.449.067" transform="translate(224.926 98.145)" fill="#39f"/>
    <path id="Shape-5" data-name="Shape" d="M47.567,27.866a.641.641,0,0,1-.06.272l-1.174,2.581a2.888,2.888,0,0,1-.59.85l-2.165,2.165h-.9l2.165-2.165a2.889,2.889,0,0,0,.59-.85l1.174-2.581a.641.641,0,0,0,.06-.272.659.659,0,0,0-.207-.476.644.644,0,0,1,.449-.18A.659.659,0,0,1,47.567,27.866Z" transform="translate(220.246 98.147)" fill="#39f"/>
    <path id="Rectangle-path" d="M.377,0H3.516a.377.377,0,0,1,.377.377V2.618a.377.377,0,0,1-.377.377H.377A.377.377,0,0,1,0,2.618V.377A.377.377,0,0,1,.377,0Z" transform="translate(260.293 131.916)" fill="#fff"/>
    <rect id="Rectangle-path-2" data-name="Rectangle-path" width="2.994" height="2.994" rx="1" transform="translate(260.289 131.916)" fill="#fff"/>
    <path id="Shape-6" data-name="Shape" d="M19.638,12.332l.3-.219-2.8-2.021A2.992,2.992,0,0,1,15.9,7.664V3.05a.138.138,0,0,1,.084-.129L19.94,1.185l-.389-.171a.15.15,0,0,0-.114,0l-.392.171L15.084,2.921A.138.138,0,0,0,15,3.05V7.664a2.992,2.992,0,0,0,1.243,2.428l2.8,2.021.3.219A.252.252,0,0,0,19.638,12.332Z" transform="translate(239.561 116.424)" fill="#fff"/>
    <path id="Shape-7" data-name="Shape" d="M18.849,11.977a.559.559,0,0,1-.325-.1L15.382,9.634A3.285,3.285,0,0,1,14,6.967v-4.7a.3.3,0,0,1,.182-.274L18.728.026a.306.306,0,0,1,.242,0l4.546,1.966a.3.3,0,0,1,.182.274v4.7a3.285,3.285,0,0,1-1.382,2.667l-3.142,2.239A.561.561,0,0,1,18.849,11.977ZM14.606,2.462V6.967a2.687,2.687,0,0,0,1.131,2.182l3.113,2.218,3.113-2.218a2.687,2.687,0,0,0,1.131-2.182V2.462L18.849.627Z" transform="translate(240.221 117.126)" fill="#39f"/>
    <path id="Shape-8" data-name="Shape" d="M21.593,13.617a.3.3,0,0,1-.175-.057l-2.55-1.839a2.1,2.1,0,0,1-.868-1.7V6.108a.3.3,0,0,1,.18-.274l3.294-1.442a.3.3,0,0,1,.24,0l3.294,1.442a.3.3,0,0,1,.18.274v3.918a2.1,2.1,0,0,1-.868,1.7l-2.55,1.839A.3.3,0,0,1,21.593,13.617Zm-2.374-2.381,2.374,1.713,2.374-1.713a1.5,1.5,0,0,0,.62-1.21V6.3L21.593,4.993,18.6,6.3v3.722A1.5,1.5,0,0,0,19.219,11.236Z" transform="translate(237.477 114.067)" fill="#1ec00b"/>
    <path id="Shape-9" data-name="Shape" d="M38.2,33.327H35.3a.3.3,0,0,1-.3-.3v-.857a3.137,3.137,0,0,1,.656-1.961,2.156,2.156,0,0,1,1-.728,5.923,5.923,0,0,0,1.714-1.1,1.381,1.381,0,0,1,1.638-.09l.646-1.508a.955.955,0,1,1,1.746.771l-1.173,2.581a3.18,3.18,0,0,1-.65.938L38.41,33.24A.3.3,0,0,1,38.2,33.327Zm-2.6-.6h2.476l2.077-2.077a2.59,2.59,0,0,0,.528-.763l1.173-2.581a.356.356,0,1,0-.651-.288l-.67,1.562a3.533,3.533,0,0,1-.755,1.115L38.41,31.065a.3.3,0,0,1-.423-.423l1.368-1.368a2.936,2.936,0,0,0,.371-.452.778.778,0,0,0-.972.019,6.381,6.381,0,0,1-1.911,1.21,1.574,1.574,0,0,0-.719.534,2.541,2.541,0,0,0-.526,1.587Z" transform="translate(225.627 98.855)" fill="#fff"/>
    <path id="Shape-10" data-name="Shape" d="M36.892,51.593H33.6a.6.6,0,0,1-.6-.6V48.6a.6.6,0,0,1,.6-.6h3.294a.6.6,0,0,1,.6.6v2.4A.6.6,0,0,1,36.892,51.593ZM33.6,48.6v2.4h3.294V48.6Z" transform="translate(226.996 83.616)" fill="#39f"/>
    <path id="Shape-11" data-name="Shape" d="M37.6,53.6h-.3a.3.3,0,1,1,0-.6h.3a.3.3,0,1,1,0,.6Z" transform="translate(224.184 80.113)" fill="#39f"/>
    <g id="Group_27530" data-name="Group 27530" transform="translate(249.449 125.057)">
      <path id="Shape-12" data-name="Shape" d="M39.985,31.562l-1.368-1.368a3.264,3.264,0,0,1-.692-1.021l-.67-1.563a.655.655,0,1,0-1.2.529l1.173,2.582a2.9,2.9,0,0,0,.589.85l2.165,2.165h2.9V32.88a2.831,2.831,0,0,0-.591-1.774,1.871,1.871,0,0,0-.859-.631,6.423,6.423,0,0,1-1.812-1.155,1.074,1.074,0,0,0-1.449.067" transform="translate(-35.697 -26.912)" fill="#39f"/>
      <path id="Shape-13" data-name="Shape" d="M42.68,27.866a.641.641,0,0,0,.06.272l1.174,2.581a2.888,2.888,0,0,0,.59.85l2.165,2.165h.9L45.4,31.57a2.888,2.888,0,0,1-.59-.85l-1.174-2.581a.641.641,0,0,1-.06-.272.659.659,0,0,1,.207-.476.644.644,0,0,0-.449-.18A.659.659,0,0,0,42.68,27.866Z" transform="translate(-42.38 -26.909)" fill="#39f"/>
      <rect id="Rectangle-path-3" data-name="Rectangle-path" width="3.892" height="2.994" rx="1" transform="translate(3.926 6.859)" fill="#fff"/>
      <rect id="Rectangle-path-4" data-name="Rectangle-path" width="2.994" height="2.994" rx="1" transform="translate(4.829 6.859)" fill="#fff"/>
      <path id="Shape-14" data-name="Shape" d="M39.287,33.327h2.9a.3.3,0,0,0,.3-.3v-.857a3.137,3.137,0,0,0-.656-1.961,2.156,2.156,0,0,0-1-.728,5.923,5.923,0,0,1-1.714-1.1,1.381,1.381,0,0,0-1.638-.09l-.646-1.508a.955.955,0,1,0-1.746.771l1.173,2.581a3.18,3.18,0,0,0,.65.938l2.165,2.164A.3.3,0,0,0,39.287,33.327Zm2.6-.6H39.411l-2.077-2.077a2.59,2.59,0,0,1-.528-.763l-1.173-2.581a.356.356,0,1,1,.651-.288l.67,1.562a3.533,3.533,0,0,0,.755,1.115l1.368,1.368a.3.3,0,0,0,.423-.423l-1.368-1.368a2.936,2.936,0,0,1-.371-.452.778.778,0,0,1,.972.019,6.381,6.381,0,0,0,1.911,1.21,1.574,1.574,0,0,1,.719.534,2.541,2.541,0,0,1,.526,1.587Z" transform="translate(-34.999 -26.202)" fill="#fff"/>
      <path id="Shape-15" data-name="Shape" d="M33.6,51.593h3.294a.6.6,0,0,0,.6-.6V48.6a.6.6,0,0,0-.6-.6H33.6a.6.6,0,0,0-.6.6v2.4A.6.6,0,0,0,33.6,51.593ZM36.892,48.6v2.4H33.6V48.6Z" transform="translate(-29.374 -41.441)" fill="#39f"/>
      <path id="Shape-16" data-name="Shape" d="M37.3,53.6h.3a.3.3,0,1,0,0-.6h-.3a.3.3,0,0,0,0,.6Z" transform="translate(-30.969 -44.944)" fill="#39f"/>
    </g>
    <path id="Shape-17" data-name="Shape" d="M24.5,16.192a.3.3,0,0,1-.18-.06l-1.2-.9a.3.3,0,1,1,.359-.479l.944.708,2.22-3.33a.3.3,0,1,1,.5.332l-2.4,3.593a.3.3,0,0,1-.2.129A.321.321,0,0,1,24.5,16.192Z" transform="translate(233.975 108.75)" fill="#39f"/>
  </g>
</svg>
