<svg xmlns="http://www.w3.org/2000/svg" width="17.999" height="18" viewBox="0 0 17.999 18">
  <g id="Group_27851" data-name="Group 27851" transform="translate(-474 -117.126)">
    <path id="Shape" d="M9.495,27.511s3.611-3.1,4.721-4.221a13.652,13.652,0,0,0,1.932-2.084,5.205,5.205,0,0,0,.846-2.984c0-2.813-1.668-4.221-3.887-4.221a4.1,4.1,0,0,0-3.611,2.252A4.1,4.1,0,0,0,5.883,14C3.664,14,2,15.408,2,18.221a5.205,5.205,0,0,0,.846,2.984,13.652,13.652,0,0,0,1.932,2.084C5.883,24.415,9.495,27.511,9.495,27.511Z" transform="translate(472.305 107.315)" fill="#e8edfc"/>
    <path id="Shape-2" data-name="Shape" d="M33.051,18.438a5.2,5.2,0,0,1-.847,2.984,13.657,13.657,0,0,1-1.934,2.084c-1.111,1.126-4.726,4.221-4.726,4.221s-.243-.207-.625-.537c.862-.745,3.525-3.047,4.45-3.984A13.657,13.657,0,0,0,31.3,21.122a5.2,5.2,0,0,0,.847-2.984,3.917,3.917,0,0,0-2.042-3.828C31.841,14.667,33.051,16.042,33.051,18.438Z" transform="translate(456.248 107.098)" fill="#cad9fc"/>
    <path id="Shape-3" data-name="Shape" d="M40.407,2.9V7.145a2.749,2.749,0,0,1-1.162,2.24l-2.954,2.1a.154.154,0,0,1-.174,0l-.363-.258L33.162,9.384A2.749,2.749,0,0,1,32,7.145V2.9a.152.152,0,0,1,.09-.138l3.663-1.582.39-.168a.166.166,0,0,1,.12,0l4.053,1.75A.152.152,0,0,1,40.407,2.9Z" transform="translate(451.295 116.425)" fill="#e8edfc"/>
    <path id="Shape-4" data-name="Shape" d="M39.506,3.32V7.563A2.749,2.749,0,0,1,38.344,9.8l-2.591,1.846L33.162,9.8A2.749,2.749,0,0,1,32,7.563V3.32a.152.152,0,0,1,.09-.138L35.753,1.6l3.663,1.582A.152.152,0,0,1,39.506,3.32Z" transform="translate(451.295 116.007)" fill="#fff"/>
    <path id="Shape-5" data-name="Shape" d="M36.657,11.423A1.555,1.555,0,0,1,36,10.163V6.61l3-1.3,3,1.3v3.552a1.555,1.555,0,0,1-.657,1.261L39,13.093Z" transform="translate(448.496 113.408)" fill="#955ba5"/>
    <path id="Shape-6" data-name="Shape" d="M36.657,11.423A1.555,1.555,0,0,1,36,10.163V6.61l3-1.3,3,1.3v3.552a1.555,1.555,0,0,1-.657,1.261L39,13.093Z" transform="translate(448.496 113.408)" fill="#a4c2f7"/>
    <path id="Shape-7" data-name="Shape" d="M4.776,23.289c.823.834,3.017,2.747,4.1,3.684l.45-.39c-1.157-1-2.931-2.563-3.651-3.293a13.657,13.657,0,0,1-1.934-2.084A5.2,5.2,0,0,1,2.9,18.221c0-2.612,1.441-4.011,3.425-4.2A4.231,4.231,0,0,0,5.887,14C3.665,14,2,15.408,2,18.221a5.2,5.2,0,0,0,.847,2.984A13.657,13.657,0,0,0,4.776,23.289Z" transform="translate(472.305 107.315)" fill="#fff"/>
    <path id="Shape-8" data-name="Shape" d="M29.905,55.826l.33-.286C30.119,55.641,30.009,55.738,29.905,55.826Z" transform="translate(452.768 78.247)" fill="#fff"/>
    <path id="Shape-9" data-name="Shape" d="M47.712,37.038q-.085.15-.178.289a6.61,6.61,0,0,1-.706.882,6.61,6.61,0,0,0,.706-.882Q47.627,37.187,47.712,37.038Z" transform="translate(440.922 91.199)" fill="#fff"/>
    <path id="Shape-10" data-name="Shape" d="M33.426,52.216l-.59.518C33.028,52.566,33.226,52.391,33.426,52.216Z" transform="translate(450.715 80.573)" fill="#fff"/>
    <path id="Shape-11" data-name="Shape" d="M39.672,47.114l-.344.316Z" transform="translate(446.172 84.146)" fill="#fff"/>
    <path id="Shape-12" data-name="Shape" d="M38.463,48.166l-.371.336Z" transform="translate(447.037 83.407)" fill="#fff"/>
    <path id="Shape-13" data-name="Shape" d="M1,17.519A5.615,5.615,0,0,1,1.342,15.5a3.8,3.8,0,0,1,1.235-1.685A4.284,4.284,0,0,1,5.19,13v.6a3.686,3.686,0,0,0-2.248.693A3.2,3.2,0,0,0,1.9,15.713a5.026,5.026,0,0,0-.3,1.806Z" transform="translate(473.002 108.027)" fill="#fff"/>
    <path id="Shape-14" data-name="Shape" d="M1.485,23.089a.289.289,0,0,0-.36.232A6.528,6.528,0,0,0,1,24.575h.6a5.941,5.941,0,0,1,.112-1.133A.316.316,0,0,0,1.485,23.089Z" transform="translate(473.002 100.97)" fill="#428dff"/>
    <path id="Shape-15" data-name="Shape" d="M8.048,13.6V13a4.284,4.284,0,0,0-2.612.816,2.39,2.39,0,0,0-.25.21.287.287,0,0,0-.008.434.32.32,0,0,0,.415.009,1.874,1.874,0,0,1,.208-.176A3.686,3.686,0,0,1,8.048,13.6Z" transform="translate(470.145 108.028)" fill="#1ec00b"/>
    <path id="Shape-16" data-name="Shape" d="M2.719,19.468a.289.289,0,0,0-.021.242l.026.053a.212.212,0,0,0,.038.047.2.2,0,0,0,.043.038.451.451,0,0,0,.053.03.33.33,0,0,0,.228.008.28.28,0,0,0,.093-.06.27.27,0,0,0,.09-.3.35.35,0,0,0-.056-.1.317.317,0,0,0-.084-.08.284.284,0,0,0-.227-.034A.34.34,0,0,0,2.719,19.468Z" transform="translate(471.826 103.615)" fill="#428dff"/>
    <path id="Shape-17" data-name="Shape" d="M8.8,36.95a.3.3,0,0,1-.195-.072c-.148-.127-3.634-3.117-4.739-4.239-.153-.156-.318-.311-.487-.471A9.5,9.5,0,0,1,1.892,30.51,5.532,5.532,0,0,1,1,27.36a.3.3,0,1,1,.6,0,4.949,4.949,0,0,0,.8,2.819,8.914,8.914,0,0,0,1.394,1.553c.174.165.343.325.5.486.941.954,3.742,3.377,4.508,4.036.766-.661,3.567-3.082,4.508-4.036.158-.16.327-.321.5-.486A8.917,8.917,0,0,0,15.2,30.18a4.637,4.637,0,0,0,.679-1.636.3.3,0,1,1,.588.122,5.227,5.227,0,0,1-.766,1.846,9.5,9.5,0,0,1-1.482,1.658c-.169.16-.333.316-.487.471-1.106,1.122-4.592,4.113-4.739,4.239A.3.3,0,0,1,8.8,36.95Z" transform="translate(473.006 98.176)" fill="#1ec00b"/>
    <path id="Shape-18" data-name="Shape" d="M17.875,15.852a.3.3,0,0,1-.269-.167A3.834,3.834,0,0,0,14.26,13.6a.3.3,0,1,1,0-.6,4.346,4.346,0,0,1,3.613,1.967,4.658,4.658,0,0,1,1.342-1.314.3.3,0,1,1,.321.507,4.031,4.031,0,0,0-1.393,1.526A.3.3,0,0,1,17.875,15.852Z" transform="translate(463.928 108.025)" fill="#1ec00b"/>
    <path id="Shape-19" data-name="Shape" d="M38.158,34.013a.3.3,0,0,1-.3-.261l-.489-3.678a.3.3,0,1,1,.6-.079l.376,2.827.459-.765a.3.3,0,1,1,.515.309l-.9,1.5A.3.3,0,0,1,38.158,34.013Z" transform="translate(447.543 96.314)" fill="#9eccfa"/>
    <path id="Shape-20" data-name="Shape" d="M9.107,32.4a.324.324,0,0,1-.051,0,.3.3,0,0,1-.247-.259L8.386,28.75l-.492,1.639a.3.3,0,0,1-.289.214H6.555l-.811,1.081a.3.3,0,0,1-.537-.135L4.8,28.874,4.287,30.4A.3.3,0,0,1,4,30.6H1.3a.3.3,0,1,1,0-.6H3.786l.833-2.5a.3.3,0,0,1,.581.049l.492,3.2.472-.631A.3.3,0,0,1,6.4,30h.978l.836-2.788a.3.3,0,0,1,.585.049l.478,3.82.457-.915A.3.3,0,0,1,10.007,30h.978l.653-2.173a.3.3,0,1,1,.575.173L11.5,30.389a.3.3,0,0,1-.288.214H10.193l-.816,1.635A.3.3,0,0,1,9.107,32.4Z" transform="translate(473.002 98.223)" fill="#9eccfa"/>
    <path id="Shape-21" data-name="Shape" d="M35.5,11.109a.534.534,0,0,1-.311-.1L32.288,8.941A3.058,3.058,0,0,1,31,6.458V2.115a.3.3,0,0,1,.18-.276l4.2-1.816a.3.3,0,0,1,.238,0l4.2,1.816a.3.3,0,0,1,.18.276V6.458a3.058,3.058,0,0,1-1.288,2.484l-2.905,2.068A.534.534,0,0,1,35.5,11.109Zm-3.9-8.8V6.456a2.456,2.456,0,0,0,1.036,1.995L35.5,10.493l2.868-2.042a2.456,2.456,0,0,0,1.036-1.994V2.313L35.5.627Z" transform="translate(451.994 117.126)" fill="#1ec00b"/>
    <path id="Shape-22" data-name="Shape" d="M38.3,12.738a.3.3,0,0,1-.174-.056l-2.345-1.67A1.855,1.855,0,0,1,35,9.507V5.954a.3.3,0,0,1,.18-.276l3-1.3a.3.3,0,0,1,.238,0l3,1.3a.3.3,0,0,1,.18.276V9.507a1.856,1.856,0,0,1-.783,1.505l-2.346,1.669A.3.3,0,0,1,38.3,12.738Zm-2.171-2.214L38.3,12.069l2.171-1.546A1.254,1.254,0,0,0,41,9.507V6.152L38.3,4.984,35.6,6.152V9.507A1.254,1.254,0,0,0,36.132,10.523Z" transform="translate(449.195 114.077)" fill="#1ec00b"/>
    <path id="Shape-23" data-name="Shape" d="M40.5,15.606a.3.3,0,0,1-.18-.06l-1.2-.9a.3.3,0,0,1,.36-.48l.968.726,2.222-2.775a.3.3,0,0,1,.469.375l-2.4,3A.3.3,0,0,1,40.5,15.606Z" transform="translate(446.396 108.722)" fill="#1ec00b"/>
  </g>
</svg>
