<svg xmlns="http://www.w3.org/2000/svg" width="18" height="18" viewBox="0 0 18 18">
  <g id="Group_27852" data-name="Group 27852" transform="translate(-647.404 -117.126)">
    <path id="Path_25228" data-name="Path 25228" d="M20.25,16.086V20.25H13.112V17.27l-2.974,2.98L4.9,15.006A6.448,6.448,0,0,1,3,10.435V5.082L10.138,3l7.138,2.082V7.824a2.687,2.687,0,0,1,2.082,2.611v.3h-.595l-1.487-1.19L14.6,10.733H14v-.3a2.679,2.679,0,0,1,2.081-2.611V5.974L10.138,4.24,4.19,5.974v4.461a5.264,5.264,0,0,0,1.555,3.729l4.393,4.4,3.081-3.084A1.781,1.781,0,0,1,14.9,14.3h.3v1.784l.892-.357v2.736l.595.595.595-.595V15.729l.892.357V14.3h.3A1.784,1.784,0,0,1,20.25,16.086Z" transform="translate(644.779 114.501)" fill="#e8edfc"/>
    <path id="Path_25230" data-name="Path 25230" d="M48.5,42.8V41H47v1.8l.751-.3Z" transform="translate(613.611 87.536)" fill="#9bc9ff"/>
    <path id="Path_25231" data-name="Path 25231" d="M39,30.751a.756.756,0,0,0,.751.751h.375V30h-.375A.753.753,0,0,0,39,30.751Z" transform="translate(619.332 95.375)" fill="#9bc9ff"/>
    <path id="Path_25232" data-name="Path 25232" d="M26.3,19.15l-5.042,5.042-2.919-2.919-.531.531,3.184,3.184a.375.375,0,0,0,.531,0l5.307-5.308Z" transform="translate(633.543 102.657)" fill="#1ec00b"/>
    <path id="Path_25233" data-name="Path 25233" d="M17.9,13.4h-.218a2.4,2.4,0,0,0,.8-1.5H18.5a.9.9,0,0,0,.534-1.62.293.293,0,0,0,.066-.18V9.8A3.005,3.005,0,0,0,17,6.938V4.4a.3.3,0,0,0-.216-.288l-7.2-2.1a.3.3,0,0,0-.168,0l-7.2,2.1A.3.3,0,0,0,2,4.4V9.8a6.8,6.8,0,0,0,2.008,4.823l5.28,5.289a.3.3,0,0,0,.425,0L12.2,17.42V19.7a.3.3,0,0,0,.3.3h7.2a.3.3,0,0,0,.3-.3V15.5a2.1,2.1,0,0,0-2.1-2.1Zm-2.1,1.943.3-.12.3.12v2.433l-.3.3-.3-.3Zm.412-.722a.3.3,0,0,0-.223,0L15.8,14.7V14h.6v.7Zm-3.862.1L9.5,17.578,5.282,13.351A5.013,5.013,0,0,1,3.8,9.8V5.525L9.5,3.864l5.7,1.661V6.938A3.005,3.005,0,0,0,13.1,9.8v.3a.293.293,0,0,0,.066.18A.9.9,0,0,0,13.7,11.9h.021a2.4,2.4,0,0,0,.8,1.5H14.3a2.1,2.1,0,0,0-1.95,1.324ZM13.7,11.3a.3.3,0,1,1,0-.6ZM14.9,14h.3v.937l-.3.12ZM17,14h.3v1.057l-.3-.12Zm.9-2.4a1.8,1.8,0,0,1-3.6,0V10.295l2.355-1.046,1.245,1Zm.6-.3v-.6a.3.3,0,1,1,0,.6Zm0-1.5h-.195L16.888,8.666a.3.3,0,0,0-.309-.04L13.936,9.8H13.7a2.4,2.4,0,0,1,4.8,0Zm-9,9.476L4.433,14.2A6.206,6.206,0,0,1,2.6,9.8V4.625L9.5,2.613l6.9,2.012v2.19a2.949,2.949,0,0,0-.6,0V5.3a.3.3,0,0,0-.216-.288l-6-1.749a.3.3,0,0,0-.168,0l-6,1.749A.3.3,0,0,0,3.2,5.3V9.8a5.61,5.61,0,0,0,1.657,3.974l4.431,4.44a.3.3,0,0,0,.425,0l2.488-2.49v.846Zm9.9.125h-.6V16.1h-.6v3.3H14V16.1h-.6v3.3h-.6V15.5A1.5,1.5,0,0,1,14.3,14v1.5a.3.3,0,0,0,.412.279l.488-.2V17.9a.3.3,0,0,0,.088.212l.6.6a.3.3,0,0,0,.424,0l.6-.6A.3.3,0,0,0,17,17.9V15.583l.488.2A.3.3,0,0,0,17.9,15.5V14a1.5,1.5,0,0,1,1.5,1.5Z" transform="translate(645.404 115.126)" fill="#1ec00b"/>
  </g>
</svg>
