<svg id="hospital" xmlns="http://www.w3.org/2000/svg" width="71.383" height="60.462" viewBox="0 0 71.383 60.462">
  <path id="Path_25146" data-name="Path 25146" d="M13.5,197.835H33.716v36.249H13.5Z" transform="translate(-11.618 -175.713)" fill="#00b3ff"/>
  <path id="Path_25147" data-name="Path 25147" d="M0,182.835H22.1v4.183H0Z" transform="translate(0 -162.805)" fill="#5f7883"/>
  <path id="Path_25148" data-name="Path 25148" d="M143.5,126h49.494v46.263H143.5Z" transform="translate(-123.493 -113.898)" fill="#f0f7ff"/>
  <path id="Path_25149" data-name="Path 25149" d="M321,126h24.747v46.263H321Z" transform="translate(-276.246 -113.898)" fill="#d7e9fc"/>
  <path id="Path_25150" data-name="Path 25150" d="M130,111.005h53.258v4.183H130Z" transform="translate(-111.876 -100.989)" fill="#5f7883"/>
  <path id="Path_25151" data-name="Path 25151" d="M321,111.005h26.629v4.183H321Z" transform="translate(-276.246 -100.989)" fill="#4b5055"/>
  <g id="Group_27441" data-name="Group 27441" transform="translate(10.944 29.093)">
    <path id="Path_25152" data-name="Path 25152" d="M78.5,247.835h4.183v4.183H78.5Z" transform="translate(-78.5 -247.835)" fill="#f0f7ff"/>
    <path id="Path_25153" data-name="Path 25153" d="M78.5,312.835h4.183v4.183H78.5Z" transform="translate(-78.5 -303.773)" fill="#f0f7ff"/>
    <path id="Path_25154" data-name="Path 25154" d="M78.5,377.835h4.183v4.182H78.5Z" transform="translate(-78.5 -359.711)" fill="#f0f7ff"/>
  </g>
  <path id="Path_25155" data-name="Path 25155" d="M338.5,312.835h4.183v4.183H338.5Z" transform="translate(-291.307 -274.68)" fill="#3a80e8"/>
  <path id="Path_25156" data-name="Path 25156" d="M403.5,312.835h4.183v4.183H403.5Z" transform="translate(-347.244 -274.68)" fill="#3a80e8"/>
  <path id="Path_25157" data-name="Path 25157" d="M273.5,312.835h4.183v4.183H273.5Z" transform="translate(-235.369 -274.68)" fill="#00b3ff"/>
  <path id="Path_25158" data-name="Path 25158" d="M208.5,312.835h4.183v4.183H208.5Z" transform="translate(-179.431 -274.68)" fill="#00b3ff"/>
  <path id="Path_25159" data-name="Path 25159" d="M403.5,247.835h4.183v4.183H403.5Z" transform="translate(-347.244 -218.742)" fill="#3a80e8"/>
  <path id="Path_25160" data-name="Path 25160" d="M338.5,247.835h4.183v4.183H338.5Z" transform="translate(-291.307 -218.742)" fill="#3a80e8"/>
  <g id="Group_27442" data-name="Group 27442" transform="translate(31.69 0)">
    <path id="Path_25161" data-name="Path 25161" d="M227.3,39.165V63.378h26.127V39.165Z" transform="translate(-227.3 -39.165)" fill="#ff5f7b"/>
  </g>
  <path id="Path_25162" data-name="Path 25162" d="M321,39.165h13.064V63.378H321Z" transform="translate(-276.246 -39.165)" fill="#ea344a"/>
  <path id="Path_25163" data-name="Path 25163" d="M289.218,85.988v4.183h-4.053v4.053h-4.183V90.171H276.93V85.988h4.053V81.935h4.183v4.053Z" transform="translate(-238.321 -75.972)" fill="#f0f7ff"/>
  <path id="Path_25164" data-name="Path 25164" d="M327.144,85.988v4.183h-4.053v4.053H321V81.935h2.091v4.053Z" transform="translate(-276.246 -75.972)" fill="#d7e9fc"/>
  <path id="Path_25165" data-name="Path 25165" d="M273.5,247.835h4.183v4.183H273.5Z" transform="translate(-235.369 -218.742)" fill="#00b3ff"/>
  <path id="Path_25166" data-name="Path 25166" d="M208.5,247.835h4.183v4.183H208.5Z" transform="translate(-179.431 -218.742)" fill="#00b3ff"/>
  <path id="Path_25167" data-name="Path 25167" d="M257.25,377.835h17.776v11.154H257.25Z" transform="translate(-221.384 -330.618)" fill="#5fd6ff"/>
  <path id="Path_25168" data-name="Path 25168" d="M321,377.835h8.888v11.154H321Z" transform="translate(-276.246 -330.618)" fill="#00b3ff"/>
  <path id="Path_25169" data-name="Path 25169" d="M0,442.835H71.383v4.183H0Z" transform="translate(0 -386.556)" fill="#bde760"/>
  <path id="Path_25170" data-name="Path 25170" d="M256,442.835h35.691v4.183H256Z" transform="translate(-220.309 -386.556)" fill="#00d880"/>
</svg>
