<svg id="Group_27617" data-name="Group 27617" xmlns="http://www.w3.org/2000/svg" width="212.681" height="333.719" viewBox="0 0 212.681 333.719">
  <path id="Path_25248" data-name="Path 25248" d="M616.178,371.417l24.253-16.169,16.594-29.359,6.9,4.486-12.43,34.234L621.71,377.374Z" transform="translate(-576.832 -282.78)" fill="#0745a0"/>
  <path id="Path_25249" data-name="Path 25249" d="M886.742,463.275l-5.423,2.572L858.768,498.61l1.178,7.872,16.693-.213Z" transform="translate(-720.282 -364.02)" fill="#8aad9f"/>
  <g id="Group_27557" data-name="Group 27557" transform="translate(8.124 170.675)">
    <g id="Group_27554" data-name="Group 27554" transform="translate(27.519)">
      <g id="Group_27552" data-name="Group 27552">
        <path id="Path_25250" data-name="Path 25250" d="M645.86,643.275l1.482,63.233-10.95,81.682-9.164.109-6.68-75.17-13.432-75.09Z" transform="translate(-607.115 -638.039)" fill="#e1edfa"/>
      </g>
      <g id="Group_27553" data-name="Group 27553" transform="translate(20.153 149.051)">
        <path id="Path_25251" data-name="Path 25251" d="M656.427,1002.878l.059,4.955,9.968,4.837,4.9-5.014-5.014-4.9Z" transform="translate(-656.427 -1002.76)" fill="#3a3029"/>
      </g>
    </g>
    <g id="Group_27555" data-name="Group 27555" transform="translate(7.821 151.556)">
      <path id="Path_25252" data-name="Path 25252" d="M567.582,1008.889l7.879,6.7-1.97,3.94-14.577-3.152v-7.486Z" transform="translate(-558.914 -1008.889)" fill="#3a3029"/>
    </g>
    <g id="Group_27556" data-name="Group 27556" transform="translate(0 21.632)">
      <path id="Path_25253" data-name="Path 25253" d="M574.264,699.45l-6.549,61.291-8.642,61.093-12.325-.586.449-63.378-7.419-58.782,17.425-8.117Z" transform="translate(-539.777 -690.971)" fill="#e1edfa"/>
    </g>
  </g>
  <g id="Group_27558" data-name="Group 27558" transform="translate(3.984 88.043)">
    <path id="Path_25254" data-name="Path 25254" d="M543.157,440.336l23.942-4.493s16.293,10.483,28.649,42.208c12.581,32.3,14.79,76.246,14.79,76.246s-85.95,22.125-80.656,6.846l5.344-72.372Z" transform="translate(-529.646 -435.843)" fill="#003788"/>
  </g>
  <g id="Group_27561" data-name="Group 27561" transform="translate(0 43.961)">
    <g id="Group_27559" data-name="Group 27559" transform="translate(14.065 20.552)">
      <path id="Path_25255" data-name="Path 25255" d="M576.232,406.436l-8.008,3.049a42.78,42.78,0,0,1-2.626-6.3c-2.492.312-5.5.416-6.974-1.617a7.071,7.071,0,0,1-.927-2.171l-2.819-9.4a8.647,8.647,0,0,1-.537-3.326c.2-1.974,1.724-3.551,3.323-4.728a17.655,17.655,0,0,1,14.347-3.262,7.735,7.735,0,0,1,3.582,1.772c1.5,1.439,1.994,3.6,2.419,5.638l1.176,5.633c.451,2.16.81,4.692-.673,6.325-.787.868-2,1.331-2.6,2.335C574.849,402.156,576.215,404.371,576.232,406.436Z" transform="translate(-554.317 -378.264)" fill="#ffe2c6"/>
    </g>
    <g id="Group_27560" data-name="Group 27560">
      <path id="Path_25256" data-name="Path 25256" d="M566.416,335.493a27.436,27.436,0,0,0-3.5-5.475c-2.22-2.763-6.57-2.338-9.846-.985-7.074,2.924-15.214,3.1-20.7,8.815-3.137,3.265-8.1,6.141-10.6,9.786A11.39,11.39,0,0,0,520,352.819a17.16,17.16,0,0,0,8.056,16.26,24.517,24.517,0,0,0,3.892,1.821c2.775,1.055,6.131,2.393,8.968,1.881-1.046-2.245-6.548-8.225-5.752-10.89,1.264-4.229,7.871-6.268,11.574-7.229,4.041-1.048,8.588-.085,12.487-1.338,2.805-.9,5.495-3.839,7.04-6.293C568.682,343.187,568.1,339.112,566.416,335.493Z" transform="translate(-519.9 -327.974)" fill="#3a3b3c"/>
    </g>
  </g>
  <g id="Group_27562" data-name="Group 27562" transform="translate(26.56 92.465)">
    <path id="Path_25257" data-name="Path 25257" d="M595.123,446.663c7.834,15.326,15.5,30.748,23.505,45.986,4.743,9.029,5.6,18.8,7,28.723q2.084,14.8,4.169,29.593.88,6.252,1.761,12.5l-35.743,6.8c1.075-12.179,2.451-24.334,3.3-36.532.783-11.25,2.366-23.939-.611-34.966-1.449-5.367-2.979-10.725-4.455-16.089q-4.062-14.763-8.231-29.5c-.2-.686-1.071-2.41-.908-3.128Z" transform="translate(-584.889 -446.663)" fill="#003788"/>
  </g>
  <g id="Group_27566" data-name="Group 27566" transform="translate(172.278 198.439)">
    <g id="Group_27564" data-name="Group 27564" transform="translate(18.444 117.346)">
      <path id="Path_25258" data-name="Path 25258" d="M997.462,997.039l.4,3.924-7.117,4.893-4.154-3.439,3.36-4.408,7.117-4.893Z" transform="translate(-986.588 -993.115)" fill="#3a3029"/>
    </g>
    <g id="Group_27565" data-name="Group 27565">
      <path id="Path_25259" data-name="Path 25259" d="M970.6,707.283,971.8,719.2,961.129,760.14l9.91,65.789-7.295,2.518-19.236-64.23-3.053-18.685.111-39.557Z" transform="translate(-941.456 -705.975)" fill="#ffe2c6"/>
    </g>
  </g>
  <g id="Group_27569" data-name="Group 27569" transform="translate(145.312 203.006)">
    <g id="Group_27567" data-name="Group 27567">
      <path id="Path_25260" data-name="Path 25260" d="M875.472,727.173l15.344,110.239h6.975l1.255-70.663,12.694-49.6Z" transform="translate(-875.472 -717.151)" fill="#ffe2c6"/>
    </g>
    <g id="Group_27568" data-name="Group 27568" transform="translate(10.965 119.39)">
      <path id="Path_25261" data-name="Path 25261" d="M913.616,1009.292v3.96l-7.542,3.96-3.771-3.96,3.771-3.96Z" transform="translate(-902.303 -1009.292)" fill="#3a3029"/>
    </g>
  </g>
  <g id="Group_27571" data-name="Group 27571" transform="translate(121.964 95.622)">
    <g id="Group_27570" data-name="Group 27570">
      <path id="Path_25262" data-name="Path 25262" d="M897.408,545.264c-5.957-39.145-3.829-67.653-4.138-75.481a16.245,16.245,0,0,0-5.806-11.891c-2.411-.537-4.509-2.09-6.944-2.7-16.47-4.144-25.453,8.432-31.619,22a388.873,388.873,0,0,0-19.138,51.6c-4.528,15.461-9.066,31.062-10.965,47.107-.784,6.621-1.437,12.9,5.811,15.82,11.551,4.654,24.531,4.553,36.732,6.045,14.014,1.714,28.047,2.967,42.155,3.553C910.861,601.616,903.365,584.409,897.408,545.264Z" transform="translate(-818.338 -454.387)" fill="#95e470"/>
    </g>
  </g>
  <g id="Group_27573" data-name="Group 27573" transform="translate(104.042 67.029)">
    <path id="Path_25263" data-name="Path 25263" d="M774.485,388.81,780,393.749l23.929,7.83,1.786-4.232-18.649-12.926Z" transform="translate(-774.485 -384.421)" fill="#eacdb0"/>
  </g>
  <g id="Group_27574" data-name="Group 27574" transform="translate(97.359 71.44)">
    <path id="Path_25264" data-name="Path 25264" d="M758.132,403.3l2.588,5.772,21.6,13.337,3.213-2.978-15.558-15.388-3.14-8.191-6.058-.639Z" transform="translate(-758.132 -395.215)" fill="#eacdb0"/>
  </g>
  <g id="Group_27575" data-name="Group 27575" transform="translate(74.358 23.522)">
    <path id="Path_25265" data-name="Path 25265" d="M708.979,280.267a9.081,9.081,0,0,1,5.934-2.3c3.331.149,16.555,2.965,23.4,9.056s16.35,12.523,10.389,31.391c-3.728,8.733-9.949,3.56-15.073,8.671s-7.336,11.464-15.13,3.328-5.034-15.132-11.876-26.34S700.049,284.88,708.979,280.267Z" transform="translate(-701.848 -277.961)" fill="#ffa700"/>
  </g>
  <g id="Group_27576" data-name="Group 27576" transform="translate(83.749 7.872)">
    <path id="Path_25266" data-name="Path 25266" d="M724.828,256.137l14.663-8.506,9.308-7.965,3.839,3.6-6.542,9.993-10.259,7.922Z" transform="translate(-724.828 -239.666)" fill="#ffa700"/>
  </g>
  <g id="Group_27577" data-name="Group 27577" transform="translate(59.201 34.692)">
    <path id="Path_25267" data-name="Path 25267" d="M678.366,305.294,673.847,316.9l-9.087,5.106,1.472,3.316,11.162-2.549,6.579-6.563Z" transform="translate(-664.76 -305.294)" fill="#ffa700"/>
  </g>
  <g id="Group_27581" data-name="Group 27581" transform="translate(51.59 0)">
    <g id="Group_27578" data-name="Group 27578" transform="translate(0.016 14.943)">
      <path id="Path_25268" data-name="Path 25268" d="M652.353,259.612s-1.192,8.7,4.741,13.007c0,0-6.068,1.078-8.752-4.008s-3.37-7.514.831-10.592S652.353,259.612,652.353,259.612Z" transform="translate(-646.175 -256.969)" fill="#3a3b3c"/>
    </g>
    <g id="Group_27579" data-name="Group 27579" transform="translate(5.113 11.794)">
      <path id="Path_25269" data-name="Path 25269" d="M661.459,265.327c-7.6-7.831,1.618-17.7,10.925-15.835,5.292,1.06,12.887,7.032,10.672,12.982.722.623,2.106,1.748,2.208,2.706.11,1.037-1.849,2.681-2.59,3.343a1.488,1.488,0,0,1-.7.415c-.34.058-.9-.285-1.5-.7a8.911,8.911,0,0,1-1.608,1.535,10.372,10.372,0,0,1-9.389,1.086A20.816,20.816,0,0,1,661.459,265.327Z" transform="translate(-658.648 -249.263)" fill="#ffe2c6"/>
    </g>
    <g id="Group_27580" data-name="Group 27580">
      <path id="Path_25270" data-name="Path 25270" d="M653.357,241.166c5.473-.232,9.613-4.576,14.881-4.749,0,0,3.445-.112,7.564,4.294a9.865,9.865,0,0,0,1.439-10.753c-2.9-6.2-16.366-9.554-16.366-9.554a22.53,22.53,0,0,0-13.668,10.887c-1.595,3-1.681,6.889,1.632,8.829A8.083,8.083,0,0,0,653.357,241.166Z" transform="translate(-646.137 -220.404)" fill="#3a3b3c"/>
    </g>
  </g>
  <g id="Group_27582" data-name="Group 27582" transform="translate(72.806 23.31)">
    <path id="Path_25271" data-name="Path 25271" d="M709.183,278.466s4.625,3.064,3.175,5.666-6.8,6.85-8.316,7.057c-2.108.286-4.1-3.581-4.1-3.581l-1.892,1.218s8.777,20.964,16.386,16.923,14.974-11.14,11.22-16.641-14.414-11.663-14.414-11.663Z" transform="translate(-698.053 -277.444)" fill="#95e470"/>
  </g>
  <g id="Group_27583" data-name="Group 27583" transform="translate(132.908 79.725)">
    <path id="Path_25272" data-name="Path 25272" d="M845.119,420.208l1.64,4.566,2.015-.684.9-6.867-2.566-1.735Z" transform="translate(-845.119 -415.488)" fill="#3a3029"/>
  </g>
  <g id="Group_27584" data-name="Group 27584" transform="translate(119.005 94.989)">
    <path id="Path_25273" data-name="Path 25273" d="M816.18,452.839l-3.819,2.779-1.261,3.169,2.162,1.6,4.676-6.081Z" transform="translate(-811.099 -452.839)" fill="#3a3029"/>
  </g>
  <g id="Group_27585" data-name="Group 27585" transform="translate(108.133 2.875)">
    <path id="Path_25274" data-name="Path 25274" d="M784.5,232.824l2.857-5.385,1.115.621-.048,5.331,1.158-.329-.042.95-2.179,1.494Z" transform="translate(-784.497 -227.44)" fill="#eacdb0"/>
  </g>
  <g id="Group_27586" data-name="Group 27586" transform="translate(55.178 51.699)">
    <path id="Path_25275" data-name="Path 25275" d="M659.164,347l-2.428-.094-1.821,2.395,1.237,2.15,2.644.5,1.5-2.138Z" transform="translate(-654.915 -346.91)" fill="#eacdb0"/>
  </g>
  <g id="Group_27588" data-name="Group 27588" transform="translate(35.029 95.306)">
    <path id="Path_25276" data-name="Path 25276" d="M681.374,454.177c-10.369,1.872-21.558,11.077-22.107,21.092-5.536-8.365-22.614-9.8-32.507-6.176-26.108,9.569-26.563,43.7-9.447,61.925,9.212,9.809,20.7,17.454,32.708,23.859,10.055,5.364,35.054,15.743,35.1,15.672.078.037,16.4-21.555,22.365-31.266,7.123-11.6,13.17-24,16.16-37.12C729.2,477.785,708.738,449.235,681.374,454.177Z" transform="translate(-605.613 -453.614)" fill="#d06060"/>
  </g>
  <g id="Group_27589" data-name="Group 27589" transform="translate(93.411 131.214)" opacity="0.12" style="mix-blend-mode: multiply;isolation: isolate">
    <path id="Path_25277" data-name="Path 25277" d="M803.657,558.221a155.321,155.321,0,0,1-16.386,29.649c-6.292,8.864-14.207,17.247-24.127,22.023a35.793,35.793,0,0,1-14.672,3.624c10.425,4.678,21.633,9.312,21.666,9.264.078.037,16.4-21.555,22.365-31.266,7.123-11.6,13.17-24,16.16-37.12a37.977,37.977,0,0,0,.634-12.916A116.178,116.178,0,0,1,803.657,558.221Z" transform="translate(-748.472 -541.478)"/>
  </g>
  <g id="Group_27590" data-name="Group 27590" transform="translate(49.713 117.396)">
    <path id="Path_25278" data-name="Path 25278" d="M737.54,529.346l-20.849,6.265-15.55-27.231a1.494,1.494,0,0,0-2.757.748q-1.212,27.7-2.424,55.4-.07,1.6-.14,3.209l-20.166-30.566-3.234-4.9c-.65-.985-2.447-.958-2.705.368q-1.807,9.244-3.612,18.489l-23.5,6.378a1.482,1.482,0,0,0,.776,2.859l24.39-6.618a1.465,1.465,0,0,0,1.042-1.043q1.548-7.923,3.1-15.845l20.689,31.359,3.234,4.9a1.5,1.5,0,0,0,2.757-.748L701,516.97l.116-2.65,13.592,23.8a1.5,1.5,0,0,0,1.663.676l21.94-6.593C740.138,531.657,739.37,528.8,737.54,529.346Z" transform="translate(-641.545 -507.667)" fill="#fff"/>
  </g>
  <g id="Group_27603" data-name="Group 27603" transform="translate(109.328 174.16)">
    <g id="Group_27592" data-name="Group 27592" transform="translate(10.109 102.417)">
      <path id="Path_25279" data-name="Path 25279" d="M812.155,900.184v45.542h6.874l4.3-27.5,3.867-21.052Z" transform="translate(-812.155 -897.176)" fill="#003788"/>
    </g>
    <g id="Group_27593" data-name="Group 27593" transform="translate(25.146 100.699)">
      <path id="Path_25280" data-name="Path 25280" d="M848.95,892.971l2.578,19.763,3.437,31.793,6.874-.43V919.609l3.437-24.919Z" transform="translate(-848.95 -892.971)" fill="#003788"/>
    </g>
    <g id="Group_27594" data-name="Group 27594" transform="translate(0 34.274)">
      <path id="Path_25281" data-name="Path 25281" d="M809.343,730.478s-7.3-1.289-10.312,9.882-11.171,43.823-11.6,61.009,10.741,6.015,24.06,8.163,24.275,2.363,24.275-5.37S840.492,730.693,809.343,730.478Z" transform="translate(-787.42 -730.433)" fill="#ffa700"/>
    </g>
    <g id="Group_27598" data-name="Group 27598" transform="translate(12.837)">
      <g id="Group_27596" data-name="Group 27596" transform="translate(1.426 6.726)">
        <g id="Group_27595" data-name="Group 27595">
          <path id="Path_25282" data-name="Path 25282" d="M825.79,668.414c6.083-10.728,19.712-3.864,20.646,6.824.531,6.078-3.537,16.213-10.695,15.7-.447.981-1.228,2.839-2.235,3.254-1.09.448-3.495-1.154-4.449-1.748a1.686,1.686,0,0,1-.673-.63,3.164,3.164,0,0,1,.284-1.844,10.069,10.069,0,0,1-2.175-1.257c-2.954-2.23-4.311-6.137-4.159-9.84A23.521,23.521,0,0,1,825.79,668.414Z" transform="translate(-822.322 -663.024)" fill="#ffe2c6"/>
        </g>
      </g>
      <g id="Group_27597" data-name="Group 27597">
        <path id="Path_25283" data-name="Path 25283" d="M832.217,655.894s9.734,2.434,9.734,6.49c0,6.1.405,10.189,0,13.814l6.895-4.081,4.056-11.356s-.811-9.329-5.678-10.951-15.007-3.244-15.007-3.244L824.51,649l-5.678-.406,1.963,17.035S823.294,653.461,832.217,655.894Z" transform="translate(-818.832 -646.566)" fill="#3a3b3c"/>
      </g>
    </g>
    <g id="Group_27599" data-name="Group 27599" transform="translate(29.442 35.823)">
      <path id="Path_25284" data-name="Path 25284" d="M859.464,734.223l12.03,4.3,10.741,26.638,8.593,19.334L886.1,787.5l-13.749-19.334Z" transform="translate(-859.464 -734.223)" fill="#ffb800"/>
    </g>
    <g id="Group_27600" data-name="Group 27600" transform="translate(56.08 86.091)">
      <path id="Path_25285" data-name="Path 25285" d="M924.645,860.234l3.007,4.3,1.719-1.719h5.156l-5.156-5.585Z" transform="translate(-924.645 -857.227)" fill="#eacdb0"/>
    </g>
    <g id="Group_27601" data-name="Group 27601" transform="translate(6.242 150.966)">
      <path id="Path_25286" data-name="Path 25286" d="M806.56,1015.974l-3.867,3.867,1.718,2.578,7.734-2.578v-3.867Z" transform="translate(-802.693 -1015.974)" fill="#b22759"/>
    </g>
    <g id="Group_27602" data-name="Group 27602" transform="translate(32.307 151.888)">
      <path id="Path_25287" data-name="Path 25287" d="M866.472,1018.524l1.432,5.657,4.726,1.718,2.578-1.289-4-6.382Z" transform="translate(-866.472 -1018.229)" fill="#b22759"/>
    </g>
  </g>
  <g id="Group_27604" data-name="Group 27604" transform="translate(105.297 209.369)">
    <path id="Path_25288" data-name="Path 25288" d="M799.215,732.721l-5.063,3.936L783.94,760.91l-6.382,17.445,4.255,2.127,5.957-8.084Z" transform="translate(-777.558 -732.721)" fill="#ffb800"/>
  </g>
  <g id="Group_27605" data-name="Group 27605" transform="translate(103.17 255.003)">
    <path id="Path_25289" data-name="Path 25289" d="M778.734,846.513l-.851,2.127-5.531,2.127V847.79l2.127-3.4Z" transform="translate(-772.352 -844.386)" fill="#eacdb0"/>
  </g>
  <path id="Path_25290" data-name="Path 25290" d="M839.668,462.633l-1.662-4.945-5.357-3.47-7.484,5.291,4.18,3.722,8.077-2.034Z" transform="translate(-700.413 -358.664)" fill="#eacdb0"/>
  <path id="Path_25291" data-name="Path 25291" d="M761.49,299.652l.906-9.007L763.8,289.3l1.817.765-.109,2.4,1.675-2.51,3.44-1.469,4.852,4.173L771.09,302Z" transform="translate(-662.759 -260.664)" fill="#eacdb0"/>
  <path id="Path_25292" data-name="Path 25292" d="M557.517,370.337l53.163-19.553,29.359-44.677,10.212,5.531-21.275,50.633L574.739,391.94l-18.948-11.372Z" transform="translate(-541.124 -271.083)" fill="#003788"/>
  <g id="Group_27610" data-name="Group 27610" transform="translate(154.895 99.274)">
    <path id="Path_25293" data-name="Path 25293" d="M944.634,474.81,935.7,525.018,904.638,549.7l-5.716-6.5,24.012-27.969,4.255-37.869,8.084-14.041Z" transform="translate(-898.922 -463.322)" fill="#81d060"/>
  </g>
  <g id="Group_27611" data-name="Group 27611" transform="translate(147.675 179.266)">
    <path id="Path_25294" data-name="Path 25294" d="M888.659,659.06l-7.234,6.382-.171,6.659,2.724,1,4.68-2.978,3.937-6.492Z" transform="translate(-881.254 -659.06)" fill="#eacdb0"/>
  </g>
  <g id="Group_27613" data-name="Group 27613" transform="translate(163.347 58.701)">
    <path id="Path_25295" data-name="Path 25295" d="M930.712,364.042s-5.278,2.5-6.5,16.226-4.611,22.091-4.611,22.091,4.03,3.193,7.846,1.949,5.158-1.349,5.253-7.025,3.978-31.894,3.978-31.894Z" transform="translate(-919.604 -364.042)" fill="#3a3b3c"/>
  </g>
  <g id="Group_27614" data-name="Group 27614" transform="translate(169.993 56.288)">
    <path id="Path_25296" data-name="Path 25296" d="M950.1,367.719a13.78,13.78,0,0,0-12.3,8.839,12.145,12.145,0,0,1,7.324-18.421,14.044,14.044,0,0,1,4.579,9.577Z" transform="translate(-935.867 -358.137)" fill="#3a3b3c"/>
  </g>
  <g id="Group_27615" data-name="Group 27615" transform="translate(169.363 62.933)">
    <path id="Path_25297" data-name="Path 25297" d="M937.313,381.53c6-13.062,22.5-6.446,24.652,5.871,1.221,7-2.495,19.177-10.857,19.291-.421,1.184-1.144,3.419-2.271,4-1.221.63-4.173-.993-5.34-1.587a1.968,1.968,0,0,1-.844-.665,3.682,3.682,0,0,1,.146-2.17,11.715,11.715,0,0,1-2.651-1.244c-3.651-2.3-5.615-6.7-5.808-11.012S935.512,385.455,937.313,381.53Z" transform="translate(-934.323 -374.396)" fill="#ffe2c6"/>
  </g>
  <g id="Group_27616" data-name="Group 27616" transform="translate(178.923 52.062)">
    <path id="Path_25298" data-name="Path 25298" d="M958.386,352.068s-3.5,7.022,5.486,11.446,13.306,13.39,9.718,20.828-12.044,11.476-8.84,14.464,17.343,4.309,17.343,4.309,15.132-25.615,6.958-40.36S964.875,343.6,958.386,352.068Z" transform="translate(-957.715 -347.795)" fill="#3a3b3c"/>
  </g>
</svg>
