<svg xmlns="http://www.w3.org/2000/svg" width="61.542" height="81" viewBox="0 0 61.542 81">
  <g id="Group_27777" data-name="Group 27777" transform="translate(-525.999 -248)">
    <path id="Path_23349" data-name="Path 23349" d="M117.158,81.1H67.378A5.881,5.881,0,0,0,61.5,86.98v56.409a5.881,5.881,0,0,0,5.881,5.881h49.781a5.881,5.881,0,0,0,5.881-5.881V86.98A5.881,5.881,0,0,0,117.158,81.1Z" transform="translate(464.502 179.731)" fill="#5b94ee"/>
    <path id="Path_23350" data-name="Path 23350" d="M108.5,81.1v7.1a7.352,7.352,0,0,0,7.344,7.344h31.983a7.352,7.352,0,0,0,7.344-7.344V81.1Z" transform="translate(424.938 179.731)" fill="#5b94ee"/>
    <path id="Path_23351" data-name="Path 23351" d="M97.25,173.527a.267.267,0,0,1-.267-.267V116.852a.267.267,0,0,1,.267-.267h49.781a.267.267,0,0,1,.267.267V173.26a.267.267,0,0,1-.267.267Z" transform="translate(434.629 149.859)" fill="#fff"/>
    <path id="Path_23353" data-name="Path 23353" d="M173.84,7.232h-8.759a7.232,7.232,0,1,0-14.464,0h-8.759A2.455,2.455,0,0,0,139.4,9.687V19.928a2.455,2.455,0,0,0,2.455,2.455H173.84a2.455,2.455,0,0,0,2.455-2.455V9.687A2.455,2.455,0,0,0,173.84,7.232Z" transform="translate(398.922 248)" fill="#5b94ee"/>
    <circle id="Ellipse_870" data-name="Ellipse 870" cx="2.578" cy="2.578" r="2.578" transform="translate(554.191 252.231)" fill="#e3e3e3"/>
    <path id="Path_23357" data-name="Path 23357" d="M191.277,305.294H164.33a1.222,1.222,0,0,1,0-2.445h26.947a1.222,1.222,0,1,1,0,2.445Z" transform="translate(378.965 -6.938)" fill="#89cd62"/>
    <path id="Path_23358" data-name="Path 23358" d="M191.277,351.932H164.33a1.222,1.222,0,1,1,0-2.445h26.947a1.222,1.222,0,1,1,0,2.445Z" transform="translate(378.965 -46.198)" fill="#d23f34"/>
    <path id="Path_23359" data-name="Path 23359" d="M191.277,398.572H164.33a1.222,1.222,0,0,1,0-2.445h26.947a1.222,1.222,0,1,1,0,2.445Z" transform="translate(378.965 -85.458)" fill="#89cd62"/>
    <path id="Path_23360" data-name="Path 23360" d="M226.126,184.8H221.79V180.46h-5.156V184.8H212.3v5.156h4.336v4.336h5.156v-4.336h4.336Z" transform="translate(337.559 96.089)" fill="#d23f34"/>
  </g>
</svg>
