<svg xmlns="http://www.w3.org/2000/svg" width="78.273" height="80.769" viewBox="0 0 78.273 80.769">
  <g id="Group_27648" data-name="Group 27648" transform="translate(-17 -319)">
    <path id="Shape" d="M35.188,54.7,50.113,44.08a14.128,14.128,0,0,0,5.967-11.5V10.718a.675.675,0,0,0-.4-.62L34.755,1.056a.675.675,0,0,0-.54,0L13.294,10.1a.675.675,0,0,0-.4.62V32.584a14.125,14.125,0,0,0,5.969,11.5L33.783,54.713A1.215,1.215,0,0,0,35.188,54.7Z" transform="translate(21.502 318.001)" fill="#e2e7f6"/>
    <path id="Shape-2" data-name="Shape" d="M20.589,38.171a8.756,8.756,0,0,1-3.7-7.105V12.313l16.2-7,16.2,7V31.074a8.754,8.754,0,0,1-3.7,7.1l-12.5,8.9Z" transform="translate(22.901 319.511)" fill="#5b94ee"/>
    <path id="Shape-3" data-name="Shape" d="M28.548,31.8a1.35,1.35,0,0,1-.81-.27L21.569,26.9a1.35,1.35,0,1,1,1.62-2.16l5.129,3.844,11.523-14.4a1.35,1.35,0,0,1,2.11,1.686L29.608,31.286A1.35,1.35,0,0,1,28.548,31.8Z" transform="translate(24.349 322.432)" fill="#fff"/>
    <path id="Shape-4" data-name="Shape" d="M17.972,48.818l-6.166-6.167a14.712,14.712,0,0,1-3.118-4.6L5.667,31a2.952,2.952,0,1,0-5.4,2.386l5.29,11.637A13.083,13.083,0,0,0,8.214,48.86l9.757,9.76H31.042V54.758a12.762,12.762,0,0,0-2.662-8,8.433,8.433,0,0,0-3.872-2.844,28.96,28.96,0,0,1-8.17-5.207,4.837,4.837,0,0,0-6.53.3" transform="translate(16.996 327.868)" fill="#fdd7ad"/>
    <path id="Shape-5" data-name="Shape" d="M48.068,48.818l6.167-6.167a14.712,14.712,0,0,0,3.118-4.6L60.375,31a2.952,2.952,0,1,1,5.4,2.386l-5.29,11.637a13.083,13.083,0,0,1-2.656,3.833l-9.76,9.76H35V54.758a12.762,12.762,0,0,1,2.663-8,8.433,8.433,0,0,1,3.872-2.844A28.953,28.953,0,0,0,49.7,38.71a4.84,4.84,0,0,1,6.531.3" transform="translate(29.235 327.868)" fill="#fdd7ad"/>
    <rect id="Rectangle-path" width="18" height="14" rx="1" transform="translate(79 399.769) rotate(180)" fill="#5b94ee"/>
    <path id="Shape-6" data-name="Shape" d="M38.7,57.7H37.35a1.35,1.35,0,0,1,0-2.7H38.7a1.35,1.35,0,1,1,0,2.7Z" transform="translate(29.585 336.886)" fill="#fff"/>
    <rect id="Rectangle-path-2" data-name="Rectangle-path" width="18" height="14" rx="1" transform="translate(33 385.769)" fill="#5b94ee"/>
    <path id="Shape-7" data-name="Shape" d="M21.7,57.7H20.35a1.35,1.35,0,1,1,0-2.7H21.7a1.35,1.35,0,1,1,0,2.7Z" transform="translate(23.64 336.886)" fill="#fff"/>
    <path id="Shape-8" data-name="Shape" d="M17.711,46.921a1.369,1.369,0,0,1-1.917,0L9.626,40.752A16.1,16.1,0,0,1,7.277,37.77c-.121-.2-.229-.391-.337-.594l.513-.472A4.646,4.646,0,0,1,9.167,35.61a13.267,13.267,0,0,0,2.376,3.239L17.711,45A1.361,1.361,0,0,1,17.711,46.921Z" transform="translate(19.421 330.105)" fill="#f09372"/>
    <path id="Shape-9" data-name="Shape" d="M43.26,46.921a1.369,1.369,0,0,0,1.917,0l6.168-6.168a16.1,16.1,0,0,0,2.349-2.983c.121-.2.229-.391.337-.594l-.513-.472A4.646,4.646,0,0,0,51.8,35.61a13.267,13.267,0,0,1-2.376,3.239L43.26,45A1.361,1.361,0,0,0,43.26,46.921Z" transform="translate(31.986 330.105)" fill="#f09372"/>
    <rect id="Rectangle-path-3" data-name="Rectangle-path" width="18" height="3" rx="1" transform="translate(79 399.769) rotate(180)" fill="#6bc13b"/>
    <rect id="Rectangle-path-4" data-name="Rectangle-path" width="18" height="3" rx="1" transform="translate(33 396.769)" fill="#6bc13b"/>
  </g>
</svg>
