<svg id="health-insurance_3_" data-name="health-insurance (3)" xmlns="http://www.w3.org/2000/svg" width="32.871" height="34" viewBox="0 0 32.871 34">
  <g id="Group_27684" data-name="Group 27684" transform="translate(13.286 12.961)">
    <path id="Path_25339" data-name="Path 25339" d="M209.1,207.226a.513.513,0,0,1-.514-.513l-.012-11.02a.513.513,0,0,1,.513-.514h0a.513.513,0,0,1,.514.513l.012,11.02a.513.513,0,0,1-.513.514Z" transform="translate(-208.572 -195.18)" fill="#838383"/>
  </g>
  <g id="Group_27685" data-name="Group 27685" transform="translate(6.949 24.494)">
    <path id="Path_25340" data-name="Path 25340" d="M121.375,370.524v3.246a4.117,4.117,0,1,1-8.226,0v-1.75a1.12,1.12,0,0,1,1.116-1.118h.506a1.12,1.12,0,0,1,1.116,1.118v1.75a1.385,1.385,0,1,0,2.75,0v-3.805a1.12,1.12,0,0,1,1.118-1.116h.5a1.118,1.118,0,0,1,1.116,1.116v.559Z" transform="translate(-113.149 -368.849)" fill="#97da7b" fill-rule="evenodd"/>
  </g>
  <g id="Group_27686" data-name="Group 27686" transform="translate(7.615 24.494)">
    <path id="Path_25341" data-name="Path 25341" d="M123.172,376.188a3.965,3.965,0,0,0,3.448,1.873,4.09,4.09,0,0,0,4.112-4.288v-3.805a1.118,1.118,0,0,0-1.116-1.116H129.6v3.731a4.146,4.146,0,0,1-6.423,3.605Z" transform="translate(-123.172 -368.851)" fill="#68ca44" fill-rule="evenodd"/>
  </g>
  <g id="Group_27687" data-name="Group 27687" transform="translate(17.773 16.173)">
    <path id="Path_25342" data-name="Path 25342" d="M283.476,243.59l-6.142,1.527c-.433.113-.8.134-.867.524-1.5,8.786,2.352,12.562,6.994,15.6.264.175.184.177.45,0,4.642-3.037,8.5-6.813,7-15.6-.066-.39-.435-.411-.869-.524L283.9,243.59A.523.523,0,0,0,283.476,243.59Z" transform="translate(-276.137 -243.545)" fill="#d80027" fill-rule="evenodd"/>
  </g>
  <g id="Group_27688" data-name="Group 27688" transform="translate(22.661 17.241)">
    <path id="Path_25343" data-name="Path 25343" d="M356.478,266.347a11.518,11.518,0,0,1-.644,1.773c-1.292,2.814-3.571,4.706-6.094,6.368a27.894,27.894,0,0,0,2.434,1.762c.266.175.186.177.452,0,4.642-3.037,8.5-6.813,7-15.6-.066-.39-.435-.411-.869-.524l-2.026-.5A16.426,16.426,0,0,1,356.478,266.347Z" transform="translate(-349.74 -259.623)" fill="#d80027" fill-rule="evenodd"/>
  </g>
  <g id="Group_27689" data-name="Group 27689" transform="translate(0)">
    <path id="Path_25344" data-name="Path 25344" d="M21.529,13.276c-.3-3.275-5.407-3-5.8,0a.851.851,0,0,1-.8.72.806.806,0,0,1-.811-.72c-1.071-3.508-4.654-2.332-4.952,0-.072.547-.662.417-.662,0C8.5,5.891,14.855,0,22.305,0S36.111,5.891,36.111,13.276c0,.417-.592.547-.662,0-.3-2.332-3.881-3.508-4.954,0a.8.8,0,0,1-.809.72.851.851,0,0,1-.8-.72c-.4-3-5.5-3.275-5.8,0a.768.768,0,0,1-.768.72H22.3A.768.768,0,0,1,21.529,13.276Z" transform="translate(-8.5)" fill="#ffa700" fill-rule="evenodd"/>
  </g>
  <g id="Group_27690" data-name="Group 27690" transform="translate(6.332)">
    <path id="Path_25345" data-name="Path 25345" d="M111.191,0c-1.667.157-7.39,4.172-7.339,13.994a.752.752,0,0,0,.093,0,.851.851,0,0,0,.8-.72c.4-3,5.5-3.275,5.8,0a.768.768,0,0,0,.77.72V0h-.128Z" transform="translate(-103.851)" fill="#ffb800" fill-rule="evenodd"/>
  </g>
  <g id="Group_27691" data-name="Group 27691" transform="translate(13.805)">
    <path id="Path_25346" data-name="Path 25346" d="M216.394,0c1.609.093,7.431,4.09,7.38,14a.8.8,0,0,0,.809-.72c1.073-3.508,4.656-2.332,4.954,0,.07.547.662.417.662,0C230.2,5.891,223.844,0,216.394,0Z" transform="translate(-216.394)" fill="#ffb800" fill-rule="evenodd"/>
  </g>
  <g id="Group_27692" data-name="Group 27692" transform="translate(15.87 0.151)">
    <path id="Path_25347" data-name="Path 25347" d="M247.488,2.279a13.328,13.328,0,0,1,7.59,11.148,2.507,2.507,0,0,1,3.489,1.977c.07.547.662.417.662,0A13.539,13.539,0,0,0,247.488,2.279Z" transform="translate(-247.488 -2.279)" fill="#ffa700" fill-rule="evenodd"/>
  </g>
  <g id="Group_27693" data-name="Group 27693" transform="translate(21.246 20.223)">
    <path id="Path_25348" data-name="Path 25348" d="M336.588,309.5V307.72a.554.554,0,0,0-.553-.551h-2.082v-2.084a.554.554,0,0,0-.553-.551h-1.776a.554.554,0,0,0-.553.551v2.084h-2.082a.554.554,0,0,0-.553.551V309.5a.554.554,0,0,0,.553.551h2.082v2.084a.554.554,0,0,0,.553.551H333.4a.554.554,0,0,0,.553-.551v-2.084h2.082A.554.554,0,0,0,336.588,309.5Z" transform="translate(-328.435 -304.534)" fill="#fff" fill-rule="evenodd"/>
  </g>
  <g id="Group_27694" data-name="Group 27694" transform="translate(24.403 20.223)">
    <path id="Path_25349" data-name="Path 25349" d="M377.346,307.457a9.992,9.992,0,0,1-1.364,5.226h1.807a.554.554,0,0,0,.553-.551v-2.084h2.082a.554.554,0,0,0,.553-.551v-1.777a.554.554,0,0,0-.553-.551h-2.082v-2.084a.554.554,0,0,0-.553-.551h-.823A11.166,11.166,0,0,1,377.346,307.457Z" transform="translate(-375.982 -304.533)" fill="#fff" fill-rule="evenodd"/>
  </g>
</svg>
