<svg xmlns="http://www.w3.org/2000/svg" width="33.835" height="34" viewBox="0 0 33.835 34">
  <g id="healthcare-covid19-coronavirus-hand-hearth" transform="translate(-3.24 -3.2)">
    <path id="Path_25302" data-name="Path 25302" d="M11.4,23.922,8.734,16.246A1.838,1.838,0,0,0,6.64,14.881,1.769,1.769,0,0,0,5.3,17.064L8.04,25.528Z" transform="translate(-0.824 -4.799)" fill="#ffac96"/>
    <path id="Path_25303" data-name="Path 25303" d="M48.29,23.922l2.665-7.676a1.838,1.838,0,0,1,2.094-1.365,1.769,1.769,0,0,1,1.341,2.182l-2.741,8.465Z" transform="translate(-18.55 -4.799)" fill="#ffac96"/>
    <path id="Path_25304" data-name="Path 25304" d="M16.067,28.753l-5.2-3.048a1.761,1.761,0,0,0-2.235.4l-1.9-5.858A1.838,1.838,0,0,0,4.64,18.881,1.769,1.769,0,0,0,3.3,21.064l2.559,9.547a2.322,2.322,0,0,0,.712,1.153L10.546,35.3a2.353,2.353,0,0,1,.788,1.759V38.94h7.059V32.813a4.706,4.706,0,0,0-2.326-4.06Z" transform="translate(0 -6.446)" fill="#ffbcab"/>
    <path id="Path_25305" data-name="Path 25305" d="M48.753,18.881a1.838,1.838,0,0,0-2.094,1.365l-1.9,5.858a1.761,1.761,0,0,0-2.235-.4l-5.2,3.048A4.706,4.706,0,0,0,35,32.813V38.94h7.059V37.058a2.353,2.353,0,0,1,.788-1.759l3.976-3.535a2.322,2.322,0,0,0,.712-1.153l2.559-9.547a1.769,1.769,0,0,0-1.341-2.182Z" transform="translate(-13.078 -6.446)" fill="#ffbcab"/>
    <path id="Path_25306" data-name="Path 25306" d="M34,53v4.706h8.235V53H34Z" transform="translate(-12.666 -20.506)" fill="#006df0"/>
    <path id="Path_25307" data-name="Path 25307" d="M24.235,53H16v4.706h8.235Z" transform="translate(-5.254 -20.506)" fill="#006df0"/>
    <path id="Path_25308" data-name="Path 25308" d="M33.287,12.235l-.418.418-7.488,7.488-7.488-7.488-.418-.418a5.293,5.293,0,1,1,7.489-7.483l.417.419.418-.418a5.293,5.293,0,1,1,7.489,7.483Z" transform="translate(-5.223 0)" fill="#d80027"/>
    <path id="Path_25309" data-name="Path 25309" d="M39.494,4.753A5.235,5.235,0,0,0,35.16,3.236a5.291,5.291,0,0,1,3.158,9l-.418.418-6.9,6.9.588.588,7.488-7.488.418-.418A5.294,5.294,0,0,0,39.494,4.753Z" transform="translate(-11.431)" fill="#bd0022"/>
    <path id="Path_25310" data-name="Path 25310" d="M30.706,17.059V14.706h2.353V12.353H30.706V10H28.353v2.353H26v2.353h2.353v2.353Z" transform="translate(-9.372 -2.8)" fill="#f1f2f2"/>
    <g id="Group_27655" data-name="Group 27655" transform="translate(8.222 20.195)">
      <path id="Path_25311" data-name="Path 25311" d="M47.864,33.037l-3.932,2.176a.509.509,0,1,0,.509.882l3.422-1.882a1.765,1.765,0,0,0,.776-2.123A1.748,1.748,0,0,1,47.864,33.037Z" transform="translate(-24.873 -32.091)" fill="#ffac96"/>
      <path id="Path_25312" data-name="Path 25312" d="M12.59,33.037l3.932,2.176a.509.509,0,1,1-.509.882L12.59,34.214a1.765,1.765,0,0,1-.776-2.123,1.748,1.748,0,0,0,.776.946Z" transform="translate(-11.71 -32.091)" fill="#ffac96"/>
    </g>
  </g>
</svg>
