<svg id="medical-insurance_2_" data-name="medical-insurance (2)" xmlns="http://www.w3.org/2000/svg" width="29.607" height="34" viewBox="0 0 29.607 34">
  <path id="Path_25363" data-name="Path 25363" d="M47.878,34l.951-.442A23.961,23.961,0,0,0,62.681,11.833V4.657H59.989A18.078,18.078,0,0,1,47.942.057L47.878,0l-.064.058a18.078,18.078,0,0,1-12.047,4.6H33.074v7.176A23.961,23.961,0,0,0,46.927,33.557Z" transform="translate(-33.074)" fill="#79d60d"/>
  <path id="Path_25364" data-name="Path 25364" d="M256,34l.951-.442A23.961,23.961,0,0,0,270.8,11.833V4.657h-2.692a18.078,18.078,0,0,1-12.047-4.6L256,0Z" transform="translate(-241.196)" fill="#3cc602"/>
  <path id="Path_25365" data-name="Path 25365" d="M179.293,169.328h-3.68v-3.68h-4.389v3.68h-3.68v4.389h3.68v3.68h4.389v-3.68h3.68Z" transform="translate(-158.615 -154.648)" fill="#f1f1f2"/>
  <path id="Path_25366" data-name="Path 25366" d="M261.874,169.328h-3.68v-3.68H256V177.4h2.194v-3.68h3.68Z" transform="translate(-241.196 -154.648)" fill="#e6e6e6"/>
</svg>
